# Blender 4.5.3 LTS
# www.blender.org
o Circle.001
v 0.200000 -0.011825 0.000000
v 0.219215 0.164010 0.000000
v 0.276121 0.333089 0.000000
v 0.368530 0.488912 0.000000
v 0.492893 0.625492 0.000000
v 0.644430 0.737581 0.000000
v 0.817317 0.820870 0.000000
v 1.004910 0.872159 0.000000
v 1.200000 0.889478 0.000000
v 0.200880 0.076518 -0.039957
v 0.238389 0.249809 -0.047419
v 0.311967 0.413046 -0.062054
v 0.418785 0.559955 -0.083301
v 0.554739 0.684891 -0.110344
v 0.714603 0.783053 -0.142143
v 0.892235 0.850668 -0.177477
v 1.080809 0.885138 -0.214986
v 0.184776 -0.011825 -0.076537
v 0.202528 0.164010 -0.083890
v 0.255102 0.333089 -0.105667
v 0.340478 0.488912 -0.141030
v 0.455374 0.625492 -0.188622
v 0.595376 0.737581 -0.246613
v 0.755102 0.820870 -0.312773
v 0.928416 0.872159 -0.384562
v 1.108656 0.889478 -0.459220
v 0.170298 0.076518 -0.113789
v 0.202097 0.249809 -0.135037
v 0.264473 0.413046 -0.176715
v 0.355029 0.559955 -0.237223
v 0.470285 0.684891 -0.314234
v 0.605811 0.783053 -0.404790
v 0.756401 0.850668 -0.505411
v 0.916265 0.885138 -0.612229
v 0.141421 -0.011825 -0.141421
v 0.155008 0.164010 -0.155008
v 0.195247 0.333089 -0.195247
v 0.260590 0.488912 -0.260590
v 0.348528 0.625492 -0.348528
v 0.455681 0.737581 -0.455681
v 0.577930 0.820870 -0.577930
v 0.710578 0.872159 -0.710578
v 0.848528 0.889478 -0.848528
v 0.113789 0.076518 -0.170298
v 0.135037 0.249809 -0.202097
v 0.176715 0.413046 -0.264473
v 0.237223 0.559955 -0.355029
v 0.314234 0.684891 -0.470285
v 0.404790 0.783053 -0.605811
v 0.505411 0.850668 -0.756401
v 0.612229 0.885138 -0.916265
v 0.076537 -0.011825 -0.184776
v 0.083890 0.164010 -0.202528
v 0.105667 0.333089 -0.255102
v 0.141031 0.488912 -0.340478
v 0.188622 0.625492 -0.455374
v 0.246613 0.737581 -0.595375
v 0.312774 0.820870 -0.755102
v 0.384562 0.872159 -0.928415
v 0.459220 0.889478 -1.108655
v 0.039958 0.076518 -0.200880
v 0.047419 0.249809 -0.238389
v 0.062054 0.413046 -0.311967
v 0.083302 0.559955 -0.418785
v 0.110344 0.684891 -0.554739
v 0.142143 0.783053 -0.714603
v 0.177477 0.850668 -0.892235
v 0.214986 0.885138 -1.080809
v 0.000000 -0.011825 -0.200000
v 0.000000 0.164010 -0.219215
v 0.000000 0.333089 -0.276120
v 0.000000 0.488912 -0.368530
v 0.000000 0.625492 -0.492893
v 0.000000 0.737581 -0.644430
v 0.000000 0.820870 -0.817316
v 0.000000 0.872159 -1.004910
v 0.000000 0.889478 -1.200000
v -0.039957 0.076518 -0.200880
v -0.047419 0.249809 -0.238389
v -0.062054 0.413046 -0.311967
v -0.083301 0.559955 -0.418785
v -0.110344 0.684891 -0.554739
v -0.142143 0.783053 -0.714603
v -0.177477 0.850668 -0.892235
v -0.214986 0.885138 -1.080809
v -0.076537 -0.011825 -0.184776
v -0.083890 0.164010 -0.202528
v -0.105667 0.333089 -0.255102
v -0.141030 0.488912 -0.340478
v -0.188622 0.625492 -0.455374
v -0.246613 0.737581 -0.595375
v -0.312773 0.820870 -0.755102
v -0.384562 0.872159 -0.928415
v -0.459220 0.889478 -1.108655
v -0.113789 0.076518 -0.170298
v -0.135037 0.249809 -0.202097
v -0.176715 0.413046 -0.264473
v -0.237223 0.559955 -0.355029
v -0.314234 0.684891 -0.470285
v -0.404790 0.783053 -0.605811
v -0.505411 0.850668 -0.756401
v -0.612229 0.885138 -0.916265
v -0.141421 -0.011825 -0.141421
v -0.155008 0.164010 -0.155008
v -0.195247 0.333089 -0.195247
v -0.260590 0.488912 -0.260590
v -0.348528 0.625492 -0.348528
v -0.455681 0.737581 -0.455681
v -0.577930 0.820870 -0.577930
v -0.710578 0.872159 -0.710578
v -0.848528 0.889478 -0.848528
v -0.170298 0.076518 -0.113789
v -0.202097 0.249809 -0.135037
v -0.264473 0.413046 -0.176715
v -0.355029 0.559955 -0.237223
v -0.470285 0.684892 -0.314234
v -0.605811 0.783053 -0.404790
v -0.756401 0.850668 -0.505411
v -0.916265 0.885138 -0.612229
v -0.184776 -0.011825 -0.076537
v -0.202528 0.164010 -0.083890
v -0.255102 0.333089 -0.105667
v -0.340478 0.488912 -0.141030
v -0.455374 0.625492 -0.188622
v -0.595375 0.737581 -0.246613
v -0.755102 0.820870 -0.312773
v -0.928415 0.872159 -0.384562
v -1.108655 0.889478 -0.459220
v -0.200880 0.076518 -0.039958
v -0.238389 0.249809 -0.047419
v -0.311967 0.413046 -0.062054
v -0.418785 0.559955 -0.083302
v -0.554739 0.684892 -0.110344
v -0.714603 0.783053 -0.142143
v -0.892235 0.850668 -0.177477
v -1.080809 0.885138 -0.214986
v -0.200000 -0.011825 -0.000000
v -0.219215 0.164010 -0.000000
v -0.276120 0.333089 -0.000000
v -0.368530 0.488912 -0.000000
v -0.492893 0.625492 0.000000
v -0.644430 0.737581 0.000000
v -0.817316 0.820870 0.000000
v -1.004910 0.872159 0.000000
v -1.200000 0.889478 0.000000
v -0.200880 0.076518 0.039957
v -0.238389 0.249809 0.047419
v -0.311967 0.413046 0.062054
v -0.418785 0.559955 0.083302
v -0.554739 0.684892 0.110344
v -0.714603 0.783053 0.142144
v -0.892235 0.850668 0.177477
v -1.080809 0.885138 0.214986
v -0.184776 -0.011825 0.076537
v -0.202528 0.164010 0.083890
v -0.255102 0.333089 0.105667
v -0.340478 0.488912 0.141030
v -0.455374 0.625492 0.188622
v -0.595375 0.737581 0.246613
v -0.755102 0.820870 0.312773
v -0.928415 0.872159 0.384562
v -1.108655 0.889478 0.459220
v -0.170298 0.076518 0.113789
v -0.202097 0.249809 0.135037
v -0.264473 0.413046 0.176715
v -0.355029 0.559955 0.237223
v -0.470285 0.684892 0.314234
v -0.605811 0.783053 0.404790
v -0.756401 0.850668 0.505411
v -0.916265 0.885138 0.612229
v -0.141421 -0.011825 0.141421
v -0.155008 0.164010 0.155008
v -0.195247 0.333089 0.195247
v -0.260590 0.488912 0.260590
v -0.348528 0.625492 0.348528
v -0.455681 0.737581 0.455681
v -0.577930 0.820870 0.577930
v -0.710578 0.872159 0.710579
v -0.848528 0.889478 0.848528
v -0.113789 0.076518 0.170298
v -0.135037 0.249809 0.202097
v -0.176715 0.413046 0.264473
v -0.237223 0.559955 0.355029
v -0.314234 0.684891 0.470285
v -0.404790 0.783053 0.605812
v -0.505410 0.850668 0.756401
v -0.612229 0.885138 0.916265
v -0.076537 -0.011825 0.184776
v -0.083890 0.164010 0.202528
v -0.105667 0.333089 0.255102
v -0.141030 0.488912 0.340478
v -0.188622 0.625492 0.455374
v -0.246612 0.737581 0.595375
v -0.312773 0.820870 0.755102
v -0.384562 0.872159 0.928416
v -0.459220 0.889478 1.108656
v -0.039958 0.076518 0.200880
v -0.047419 0.249809 0.238389
v -0.062054 0.413046 0.311967
v -0.083302 0.559955 0.418785
v -0.110344 0.684891 0.554739
v -0.142143 0.783053 0.714603
v -0.177477 0.850668 0.892235
v -0.214986 0.885138 1.080809
v -0.000000 -0.011825 0.200000
v -0.000000 0.164010 0.219215
v -0.000000 0.333089 0.276120
v -0.000000 0.488912 0.368530
v 0.000000 0.625492 0.492893
v 0.000000 0.737581 0.644430
v 0.000000 0.820870 0.817316
v 0.000000 0.872159 1.004910
v 0.000000 0.889478 1.200000
v 0.039957 0.076518 0.200880
v 0.047419 0.249809 0.238389
v 0.062054 0.413046 0.311967
v 0.083302 0.559955 0.418785
v 0.110344 0.684891 0.554739
v 0.142144 0.783053 0.714603
v 0.177477 0.850668 0.892235
v 0.214986 0.885138 1.080809
v 0.076537 -0.011825 0.184776
v 0.083890 0.164010 0.202528
v 0.105667 0.333089 0.255102
v 0.141031 0.488912 0.340478
v 0.188622 0.625492 0.455374
v 0.246613 0.737581 0.595375
v 0.312774 0.820870 0.755102
v 0.384562 0.872159 0.928415
v 0.459220 0.889478 1.108655
v 0.113789 0.076518 0.170298
v 0.135037 0.249809 0.202097
v 0.176715 0.413046 0.264473
v 0.237223 0.559955 0.355029
v 0.314234 0.684891 0.470285
v 0.404790 0.783053 0.605811
v 0.505411 0.850668 0.756401
v 0.612229 0.885138 0.916265
v 0.141421 -0.011825 0.141421
v 0.155008 0.164010 0.155008
v 0.195247 0.333089 0.195247
v 0.260590 0.488912 0.260590
v 0.348528 0.625492 0.348528
v 0.455681 0.737581 0.455681
v 0.577930 0.820870 0.577930
v 0.710579 0.872159 0.710578
v 0.848529 0.889478 0.848528
v 0.170298 0.076518 0.113789
v 0.202097 0.249809 0.135037
v 0.264473 0.413046 0.176715
v 0.355029 0.559955 0.237223
v 0.470285 0.684891 0.314234
v 0.605811 0.783053 0.404790
v 0.756401 0.850668 0.505411
v 0.916265 0.885138 0.612229
v 0.184776 -0.011825 0.076537
v 0.202528 0.164010 0.083890
v 0.255102 0.333089 0.105667
v 0.340478 0.488912 0.141031
v 0.455374 0.625492 0.188622
v 0.595375 0.737581 0.246613
v 0.755102 0.820870 0.312773
v 0.928415 0.872159 0.384562
v 1.108656 0.889478 0.459220
v 0.200880 0.076518 0.039958
v 0.238389 0.249809 0.047419
v 0.311967 0.413046 0.062054
v 0.418785 0.559955 0.083302
v 0.554739 0.684891 0.110344
v 0.714603 0.783053 0.142143
v 0.892236 0.850668 0.177477
v 1.080809 0.885138 0.214986
vn 0.9964 -0.0842 -0.0000
vn 0.9759 -0.2183 -0.0000
vn 0.9070 -0.4211 -0.0000
vn 0.8019 -0.5974 -0.0000
vn 0.6702 -0.7421 -0.0000
vn 0.4911 -0.8711 -0.0000
vn 0.3432 -0.9393 -0.0000
vn 0.1698 -0.9855 -0.0000
vn 0.0812 -0.9967 -0.0000
vn 0.9748 -0.1101 -0.1939
vn 0.9284 -0.3224 -0.1847
vn 0.8419 -0.5130 -0.1675
vn 0.7247 -0.6738 -0.1441
vn 0.5570 -0.8231 -0.1108
vn 0.4198 -0.9038 -0.0835
vn 0.2520 -0.9664 -0.0501
vn 0.1036 -0.9944 -0.0206
vn 0.9206 -0.0842 -0.3813
vn 0.9016 -0.2183 -0.3735
vn 0.8380 -0.4211 -0.3471
vn 0.7409 -0.5974 -0.3069
vn 0.6192 -0.7421 -0.2565
vn 0.4537 -0.8711 -0.1879
vn 0.3171 -0.9393 -0.1313
vn 0.1569 -0.9855 -0.0650
vn 0.0750 -0.9967 -0.0311
vn 0.8264 -0.1101 -0.5522
vn 0.7871 -0.3224 -0.5259
vn 0.7137 -0.5130 -0.4769
vn 0.6143 -0.6738 -0.4105
vn 0.4722 -0.8231 -0.3155
vn 0.3559 -0.9038 -0.2378
vn 0.2136 -0.9664 -0.1427
vn 0.0878 -0.9944 -0.0587
vn 0.7046 -0.0842 -0.7046
vn 0.6901 -0.2183 -0.6901
vn 0.6414 -0.4211 -0.6414
vn 0.5670 -0.5974 -0.5670
vn 0.4739 -0.7421 -0.4739
vn 0.3473 -0.8711 -0.3473
vn 0.2427 -0.9393 -0.2427
vn 0.1201 -0.9855 -0.1201
vn 0.0574 -0.9967 -0.0574
vn 0.5522 -0.1101 -0.8264
vn 0.5259 -0.3224 -0.7871
vn 0.4769 -0.5130 -0.7137
vn 0.4105 -0.6738 -0.6143
vn 0.3155 -0.8231 -0.4722
vn 0.2378 -0.9038 -0.3559
vn 0.1427 -0.9664 -0.2136
vn 0.0587 -0.9944 -0.0878
vn 0.3813 -0.0842 -0.9206
vn 0.3735 -0.2183 -0.9016
vn 0.3471 -0.4211 -0.8380
vn 0.3069 -0.5974 -0.7409
vn 0.2565 -0.7421 -0.6192
vn 0.1879 -0.8711 -0.4537
vn 0.1313 -0.9393 -0.3171
vn 0.0650 -0.9855 -0.1569
vn 0.0311 -0.9967 -0.0750
vn 0.1939 -0.1101 -0.9748
vn 0.1847 -0.3224 -0.9284
vn 0.1675 -0.5130 -0.8419
vn 0.1441 -0.6738 -0.7247
vn 0.1108 -0.8231 -0.5570
vn 0.0835 -0.9038 -0.4198
vn 0.0501 -0.9664 -0.2520
vn 0.0206 -0.9944 -0.1036
vn -0.0000 -0.0842 -0.9964
vn -0.0000 -0.2183 -0.9759
vn -0.0000 -0.4211 -0.9070
vn -0.0000 -0.5974 -0.8019
vn -0.0000 -0.7421 -0.6702
vn -0.0000 -0.8711 -0.4911
vn -0.0000 -0.9393 -0.3432
vn -0.0000 -0.9855 -0.1698
vn -0.0000 -0.9967 -0.0812
vn -0.1939 -0.1101 -0.9748
vn -0.1847 -0.3224 -0.9284
vn -0.1675 -0.5130 -0.8419
vn -0.1441 -0.6738 -0.7247
vn -0.1108 -0.8231 -0.5570
vn -0.0835 -0.9038 -0.4198
vn -0.0501 -0.9664 -0.2520
vn -0.0206 -0.9944 -0.1036
vn -0.3813 -0.0842 -0.9206
vn -0.3735 -0.2183 -0.9016
vn -0.3471 -0.4211 -0.8380
vn -0.3069 -0.5974 -0.7409
vn -0.2565 -0.7421 -0.6192
vn -0.1879 -0.8711 -0.4537
vn -0.1313 -0.9393 -0.3171
vn -0.0650 -0.9855 -0.1569
vn -0.0311 -0.9967 -0.0750
vn -0.5522 -0.1101 -0.8264
vn -0.5259 -0.3224 -0.7871
vn -0.4769 -0.5130 -0.7137
vn -0.4105 -0.6738 -0.6143
vn -0.3155 -0.8231 -0.4722
vn -0.2378 -0.9038 -0.3559
vn -0.1427 -0.9664 -0.2136
vn -0.0587 -0.9944 -0.0878
vn -0.7046 -0.0842 -0.7046
vn -0.6901 -0.2183 -0.6901
vn -0.6414 -0.4211 -0.6414
vn -0.5670 -0.5974 -0.5670
vn -0.4739 -0.7421 -0.4739
vn -0.3473 -0.8711 -0.3473
vn -0.2427 -0.9393 -0.2427
vn -0.1201 -0.9855 -0.1201
vn -0.0574 -0.9967 -0.0574
vn -0.8264 -0.1101 -0.5522
vn -0.7871 -0.3224 -0.5259
vn -0.7137 -0.5130 -0.4769
vn -0.6143 -0.6738 -0.4105
vn -0.4722 -0.8231 -0.3155
vn -0.3559 -0.9038 -0.2378
vn -0.2136 -0.9664 -0.1427
vn -0.0878 -0.9944 -0.0587
vn -0.9206 -0.0842 -0.3813
vn -0.9016 -0.2183 -0.3735
vn -0.8380 -0.4211 -0.3471
vn -0.7409 -0.5974 -0.3069
vn -0.6192 -0.7421 -0.2565
vn -0.4537 -0.8711 -0.1879
vn -0.3171 -0.9393 -0.1313
vn -0.1569 -0.9855 -0.0650
vn -0.0750 -0.9967 -0.0311
vn -0.9748 -0.1101 -0.1939
vn -0.9284 -0.3224 -0.1847
vn -0.8419 -0.5130 -0.1675
vn -0.7247 -0.6738 -0.1441
vn -0.5570 -0.8231 -0.1108
vn -0.4198 -0.9038 -0.0835
vn -0.2520 -0.9664 -0.0501
vn -0.1036 -0.9944 -0.0206
vn -0.9964 -0.0842 -0.0000
vn -0.9759 -0.2183 -0.0000
vn -0.9070 -0.4211 -0.0000
vn -0.8019 -0.5974 -0.0000
vn -0.6702 -0.7421 -0.0000
vn -0.4911 -0.8711 -0.0000
vn -0.3432 -0.9393 -0.0000
vn -0.1698 -0.9855 -0.0000
vn -0.0812 -0.9967 -0.0000
vn -0.9748 -0.1101 0.1939
vn -0.9284 -0.3224 0.1847
vn -0.8419 -0.5130 0.1675
vn -0.7247 -0.6738 0.1441
vn -0.5570 -0.8231 0.1108
vn -0.4198 -0.9038 0.0835
vn -0.2520 -0.9664 0.0501
vn -0.1036 -0.9944 0.0206
vn -0.9206 -0.0842 0.3813
vn -0.9016 -0.2183 0.3735
vn -0.8380 -0.4211 0.3471
vn -0.7409 -0.5974 0.3069
vn -0.6192 -0.7421 0.2565
vn -0.4537 -0.8711 0.1879
vn -0.3171 -0.9393 0.1313
vn -0.1569 -0.9855 0.0650
vn -0.0750 -0.9967 0.0311
vn -0.8264 -0.1101 0.5522
vn -0.7871 -0.3224 0.5259
vn -0.7137 -0.5130 0.4769
vn -0.6143 -0.6738 0.4105
vn -0.4722 -0.8231 0.3155
vn -0.3559 -0.9038 0.2378
vn -0.2136 -0.9664 0.1427
vn -0.0878 -0.9944 0.0587
vn -0.7046 -0.0842 0.7046
vn -0.6901 -0.2183 0.6901
vn -0.6414 -0.4211 0.6414
vn -0.5670 -0.5974 0.5670
vn -0.4739 -0.7421 0.4739
vn -0.3473 -0.8711 0.3473
vn -0.2427 -0.9393 0.2427
vn -0.1201 -0.9855 0.1201
vn -0.0574 -0.9967 0.0574
vn -0.5522 -0.1101 0.8264
vn -0.5259 -0.3224 0.7871
vn -0.4769 -0.5130 0.7137
vn -0.4105 -0.6738 0.6143
vn -0.3155 -0.8231 0.4722
vn -0.2378 -0.9038 0.3559
vn -0.1427 -0.9664 0.2136
vn -0.0587 -0.9944 0.0878
vn -0.3813 -0.0842 0.9206
vn -0.3735 -0.2183 0.9016
vn -0.3471 -0.4211 0.8380
vn -0.3069 -0.5974 0.7409
vn -0.2565 -0.7421 0.6192
vn -0.1879 -0.8711 0.4537
vn -0.1313 -0.9393 0.3171
vn -0.0650 -0.9855 0.1569
vn -0.0311 -0.9967 0.0750
vn -0.1939 -0.1101 0.9748
vn -0.1847 -0.3224 0.9284
vn -0.1675 -0.5130 0.8419
vn -0.1441 -0.6738 0.7247
vn -0.1108 -0.8231 0.5570
vn -0.0835 -0.9038 0.4198
vn -0.0501 -0.9664 0.2520
vn -0.0206 -0.9944 0.1036
vn -0.0000 -0.0842 0.9964
vn -0.0000 -0.2183 0.9759
vn -0.0000 -0.4211 0.9070
vn -0.0000 -0.5974 0.8019
vn -0.0000 -0.7421 0.6702
vn -0.0000 -0.8711 0.4911
vn -0.0000 -0.9393 0.3432
vn -0.0000 -0.9855 0.1698
vn -0.0000 -0.9967 0.0812
vn 0.1939 -0.1101 0.9748
vn 0.1847 -0.3224 0.9284
vn 0.1675 -0.5130 0.8419
vn 0.1441 -0.6738 0.7247
vn 0.1108 -0.8231 0.5570
vn 0.0835 -0.9038 0.4198
vn 0.0501 -0.9664 0.2520
vn 0.0206 -0.9944 0.1036
vn 0.3813 -0.0842 0.9206
vn 0.3735 -0.2183 0.9016
vn 0.3471 -0.4211 0.8380
vn 0.3069 -0.5974 0.7409
vn 0.2565 -0.7421 0.6192
vn 0.1879 -0.8711 0.4537
vn 0.1313 -0.9393 0.3171
vn 0.0650 -0.9855 0.1569
vn 0.0311 -0.9967 0.0750
vn 0.5522 -0.1101 0.8264
vn 0.5259 -0.3224 0.7871
vn 0.4769 -0.5130 0.7137
vn 0.4105 -0.6738 0.6143
vn 0.3155 -0.8231 0.4722
vn 0.2378 -0.9038 0.3559
vn 0.1427 -0.9664 0.2136
vn 0.0587 -0.9944 0.0878
vn 0.7046 -0.0842 0.7046
vn 0.6901 -0.2183 0.6901
vn 0.6414 -0.4211 0.6414
vn 0.5670 -0.5974 0.5670
vn 0.4739 -0.7421 0.4739
vn 0.3473 -0.8711 0.3473
vn 0.2427 -0.9393 0.2427
vn 0.1201 -0.9855 0.1201
vn 0.0574 -0.9967 0.0574
vn 0.8264 -0.1101 0.5522
vn 0.7871 -0.3224 0.5259
vn 0.7137 -0.5130 0.4769
vn 0.6143 -0.6738 0.4105
vn 0.4722 -0.8231 0.3155
vn 0.3559 -0.9038 0.2378
vn 0.2136 -0.9664 0.1427
vn 0.0878 -0.9944 0.0587
vn 0.9206 -0.0842 0.3813
vn 0.9016 -0.2183 0.3735
vn 0.8380 -0.4211 0.3471
vn 0.7409 -0.5974 0.3069
vn 0.6192 -0.7421 0.2565
vn 0.4537 -0.8711 0.1879
vn 0.3171 -0.9393 0.1313
vn 0.1569 -0.9855 0.0650
vn 0.0750 -0.9967 0.0311
vn 0.9748 -0.1101 0.1939
vn 0.9284 -0.3224 0.1847
vn 0.8419 -0.5130 0.1675
vn 0.7247 -0.6738 0.1441
vn 0.5570 -0.8231 0.1108
vn 0.4198 -0.9038 0.0835
vn 0.2520 -0.9664 0.0501
vn 0.1036 -0.9944 0.0206
vt 0.968750 0.127530
vt 0.031250 0.127530
vt 1.000000 0.273351
vt 0.125000 1.042487
vt 0.062500 1.042487
vt 0.093750 0.933259
vt 0.125000 1.368117
vt 0.125000 1.229301
vt 0.156250 1.305088
vt 0.187500 1.368117
vt 0.187500 1.229301
vt 0.218750 1.305088
vt 0.250000 1.368117
vt 0.250000 1.229301
vt 0.281250 1.305088
vt 0.312500 1.368117
vt 0.312500 1.229301
vt 0.343750 1.305088
vt 0.375000 1.368117
vt 0.375000 1.229301
vt 0.406250 1.305088
vt 0.437500 1.368117
vt 0.437500 1.229301
vt 0.468750 1.305088
vt 0.500000 1.368117
vt 0.500000 1.229301
vt 0.531250 1.305088
vt 0.562500 1.368117
vt 0.562500 1.229301
vt 0.593750 1.305088
vt 0.625000 1.368117
vt 0.625000 1.229301
vt 0.656250 1.305088
vt 0.687500 1.368117
vt 0.687500 1.229301
vt 0.718750 1.305088
vt 0.750000 1.368117
vt 0.750000 1.229301
vt 0.781250 1.305088
vt 0.812500 1.368117
vt 0.812500 1.229301
vt 0.843750 1.305088
vt 0.875000 1.368117
vt 0.875000 1.229301
vt 0.906250 1.305088
vt 0.937500 1.368117
vt 0.937500 1.229301
vt 0.968750 1.305088
vt 0.093750 1.141486
vt 0.031250 1.141486
vt 0.156250 1.417780
vt 0.218750 1.417780
vt 0.281250 1.417780
vt 0.343750 1.417780
vt 0.406250 1.417780
vt 0.468750 1.417780
vt 0.531250 1.417780
vt 0.593750 1.417780
vt 0.656250 1.417780
vt 0.718750 1.417780
vt 0.781250 1.417780
vt 0.843750 1.417780
vt 0.906250 1.417780
vt 0.968750 1.417780
vt 0.000000 1.368117
vt 0.968750 0.416349
vt 0.031250 0.416349
vt 1.000000 0.555148
vt 0.093750 1.305088
vt 0.125000 1.453599
vt 0.187500 1.453599
vt 0.250000 1.453599
vt 0.312500 1.453599
vt 0.375000 1.453599
vt 0.437500 1.453599
vt 0.500000 1.453599
vt 0.562500 1.453599
vt 0.625000 1.453599
vt 0.687500 1.453599
vt 0.750000 1.453599
vt 0.812500 1.453599
vt 0.875000 1.453599
vt 0.937500 1.453599
vt 0.062500 1.368117
vt 0.062500 1.229301
vt 0.156250 1.475230
vt 0.218750 1.475230
vt 0.281250 1.475230
vt 0.343750 1.475230
vt 0.406250 1.475230
vt 0.468750 1.475230
vt 0.531250 1.475230
vt 0.593750 1.475230
vt 0.656250 1.475230
vt 0.718750 1.475230
vt 0.781250 1.475230
vt 0.843750 1.475230
vt 0.906250 1.475230
vt 0.968750 1.475230
vt 0.000000 1.453599
vt 0.968750 0.688410
vt 0.031250 0.688410
vt 1.000000 0.814853
vt 0.093750 1.417780
vt 0.125000 1.482463
vt 0.187500 1.482463
vt 0.250000 1.482463
vt 0.312500 1.482463
vt 0.375000 1.482463
vt 0.437500 1.482463
vt 0.500000 1.482463
vt 0.562500 1.482463
vt 0.625000 1.482463
vt 0.687500 1.482463
vt 0.750000 1.482463
vt 0.812500 1.482463
vt 0.875000 1.482463
vt 0.937500 1.482463
vt 0.000000 -0.019709
vt 0.062500 -0.019709
vt 0.062500 1.453599
vt 0.250000 0.273351
vt 0.187500 0.273351
vt 0.218750 0.127530
vt 0.312500 0.273351
vt 0.281250 0.127530
vt 0.375000 0.273351
vt 0.343750 0.127530
vt 0.437500 0.273351
vt 0.406250 0.127530
vt 0.500000 0.273351
vt 0.468750 0.127530
vt 0.562500 0.273351
vt 0.531250 0.127530
vt 0.625000 0.273351
vt 0.593750 0.127530
vt 0.687500 0.273351
vt 0.656250 0.127530
vt 0.750000 0.273351
vt 0.718750 0.127530
vt 0.812500 0.273351
vt 0.781250 0.127530
vt 0.875000 0.273351
vt 0.843750 0.127530
vt 0.937500 0.273351
vt 0.906250 0.127530
vt 0.000000 0.273351
vt 0.968750 0.933259
vt 0.031250 0.933259
vt 1.000000 1.042487
vt 0.093750 1.475230
vt 0.156250 0.127530
vt 0.187500 -0.019709
vt 0.250000 -0.019709
vt 0.312500 -0.019709
vt 0.375000 -0.019709
vt 0.437500 -0.019709
vt 0.500000 -0.019709
vt 0.562500 -0.019709
vt 0.625000 -0.019709
vt 0.687500 -0.019709
vt 0.750000 -0.019709
vt 0.812500 -0.019709
vt 0.875000 -0.019709
vt 0.937500 -0.019709
vt 1.000000 1.482463
vt 0.062500 1.482463
vt 0.968750 1.141486
vt 1.000000 1.229301
vt 0.125000 0.273351
vt 0.125000 -0.019709
vt 0.093750 0.127530
vt 0.062500 0.273351
vt 0.031250 1.475230
vt 0.218750 0.688410
vt 0.156250 0.688410
vt 0.187500 0.555148
vt 0.281250 0.688410
vt 0.250000 0.555148
vt 0.343750 0.688410
vt 0.312500 0.555148
vt 0.406250 0.688410
vt 0.375000 0.555148
vt 0.468750 0.688410
vt 0.437500 0.555148
vt 0.531250 0.688410
vt 0.500000 0.555148
vt 0.593750 0.688410
vt 0.562500 0.555148
vt 0.656250 0.688410
vt 0.625000 0.555148
vt 0.718750 0.688410
vt 0.687500 0.555148
vt 0.781250 0.688410
vt 0.750000 0.555148
vt 0.843750 0.688410
vt 0.812500 0.555148
vt 0.906250 0.688410
vt 0.875000 0.555148
vt 0.937500 0.555148
vt 0.125000 0.555148
vt 0.062500 0.555148
vt 0.093750 0.416349
vt 1.000000 1.368117
vt 0.000000 1.229301
vt 0.031250 1.305088
vt 0.156250 0.416349
vt 0.218750 0.416349
vt 0.281250 0.416349
vt 0.343750 0.416349
vt 0.406250 0.416349
vt 0.468750 0.416349
vt 0.531250 0.416349
vt 0.593750 0.416349
vt 0.656250 0.416349
vt 0.718750 0.416349
vt 0.781250 0.416349
vt 0.843750 0.416349
vt 0.906250 0.416349
vt 0.000000 0.555148
vt 0.093750 0.688410
vt 1.000000 1.453599
vt 0.031250 1.417780
vt 0.187500 0.814853
vt 0.125000 0.814853
vt 0.250000 0.814853
vt 0.312500 0.814853
vt 0.375000 0.814853
vt 0.437500 0.814853
vt 0.500000 0.814853
vt 0.562500 0.814853
vt 0.625000 0.814853
vt 0.687500 0.814853
vt 0.750000 0.814853
vt 0.812500 0.814853
vt 0.875000 0.814853
vt 0.937500 0.814853
vt 0.000000 0.814853
vt 0.218750 0.933259
vt 0.156250 0.933259
vt 0.281250 0.933259
vt 0.343750 0.933259
vt 0.406250 0.933259
vt 0.468750 0.933259
vt 0.531250 0.933259
vt 0.593750 0.933259
vt 0.656250 0.933259
vt 0.718750 0.933259
vt 0.781250 0.933259
vt 0.843750 0.933259
vt 0.906250 0.933259
vt 0.187500 1.042487
vt 0.250000 1.042487
vt 0.312500 1.042487
vt 0.375000 1.042487
vt 0.437500 1.042487
vt 0.500000 1.042487
vt 0.562500 1.042487
vt 0.625000 1.042487
vt 0.687500 1.042487
vt 0.750000 1.042487
vt 0.812500 1.042487
vt 0.875000 1.042487
vt 0.937500 1.042487
vt 0.000000 1.042487
vt 0.062500 0.814853
vt 0.156250 1.141486
vt 0.218750 1.141486
vt 0.281250 1.141486
vt 0.343750 1.141486
vt 0.406250 1.141486
vt 0.468750 1.141486
vt 0.531250 1.141486
vt 0.593750 1.141486
vt 0.656250 1.141486
vt 0.718750 1.141486
vt 0.781250 1.141486
vt 0.843750 1.141486
vt 0.906250 1.141486
s 1
f 265/1/265 10/2/10 2/3/2
f 39/4/39 22/5/22 30/6/30
f 41/7/41 40/8/40 49/9/49
f 58/10/58 57/11/57 66/12/66
f 75/13/75 74/14/74 83/15/83
f 92/16/92 91/17/91 100/18/100
f 109/19/109 108/20/108 117/21/117
f 126/22/126 125/23/125 134/24/134
f 143/25/143 142/26/142 151/27/151
f 160/28/160 159/29/159 168/30/168
f 177/31/177 176/32/176 185/33/185
f 194/34/194 193/35/193 202/36/202
f 211/37/211 210/38/210 219/39/219
f 228/40/228 227/41/227 236/42/236
f 245/43/245 244/44/244 253/45/253
f 262/46/262 261/47/261 270/48/270
f 31/49/31 14/50/14 22/5/22
f 50/51/50 49/9/49 58/10/58
f 67/52/67 66/12/66 75/13/75
f 84/53/84 83/15/83 92/16/92
f 101/54/101 100/18/100 109/19/109
f 118/55/118 117/21/117 126/22/126
f 135/56/135 134/24/134 143/25/143
f 152/57/152 151/27/151 160/28/160
f 169/58/169 168/30/168 177/31/177
f 186/59/186 185/33/185 194/34/194
f 203/60/203 202/36/202 211/37/211
f 220/61/220 219/39/219 228/40/228
f 237/62/237 236/42/236 245/43/245
f 254/63/254 253/45/253 262/46/262
f 271/64/271 270/48/270 7/65/7
f 266/66/266 11/67/11 3/68/3
f 32/69/32 31/49/31 40/8/40
f 42/70/42 41/7/41 50/51/50
f 59/71/59 58/10/58 67/52/67
f 76/72/76 75/13/75 84/53/84
f 93/73/93 92/16/92 101/54/101
f 110/74/110 109/19/109 118/55/118
f 127/75/127 126/22/126 135/56/135
f 144/76/144 143/25/143 152/57/152
f 161/77/161 160/28/160 169/58/169
f 178/78/178 177/31/177 186/59/186
f 195/79/195 194/34/194 203/60/203
f 212/80/212 211/37/211 220/61/220
f 229/81/229 228/40/228 237/62/237
f 246/82/246 245/43/245 254/63/254
f 263/83/263 262/46/262 271/64/271
f 24/84/24 23/85/23 32/69/32
f 51/86/51 50/51/50 59/71/59
f 68/87/68 67/52/67 76/72/76
f 85/88/85 84/53/84 93/73/93
f 102/89/102 101/54/101 110/74/110
f 119/90/119 118/55/118 127/75/127
f 136/91/136 135/56/135 144/76/144
f 153/92/153 152/57/152 161/77/161
f 170/93/170 169/58/169 178/78/178
f 187/94/187 186/59/186 195/79/195
f 204/95/204 203/60/203 212/80/212
f 221/96/221 220/61/220 229/81/229
f 238/97/238 237/62/237 246/82/246
f 255/98/255 254/63/254 263/83/263
f 272/99/272 271/64/271 8/100/8
f 267/101/267 12/102/12 4/103/4
f 33/104/33 32/69/32 41/7/41
f 43/105/43 42/70/42 51/86/51
f 60/106/60 59/71/59 68/87/68
f 77/107/77 76/72/76 85/88/85
f 94/108/94 93/73/93 102/89/102
f 111/109/111 110/74/110 119/90/119
f 128/110/128 127/75/127 136/91/136
f 145/111/145 144/76/144 153/92/153
f 162/112/162 161/77/161 170/93/170
f 179/113/179 178/78/178 187/94/187
f 196/114/196 195/79/195 204/95/204
f 213/115/213 212/80/212 221/96/221
f 230/116/230 229/81/229 238/97/238
f 247/117/247 246/82/246 255/98/255
f 264/118/264 263/83/263 272/99/272
f 1/119/1 18/120/18 10/2/10
f 25/121/25 24/84/24 33/104/33
f 70/122/70 53/123/53 61/124/61
f 87/125/87 70/122/70 78/126/78
f 104/127/104 87/125/87 95/128/95
f 121/129/121 104/127/104 112/130/112
f 138/131/138 121/129/121 129/132/129
f 155/133/155 138/131/138 146/134/146
f 172/135/172 155/133/155 163/136/163
f 189/137/189 172/135/172 180/138/180
f 206/139/206 189/137/189 197/140/197
f 223/141/223 206/139/206 214/142/214
f 240/143/240 223/141/223 231/144/231
f 257/145/257 240/143/240 248/146/248
f 2/147/2 257/145/257 265/1/265
f 268/148/268 13/149/13 5/150/5
f 34/151/34 33/104/33 42/70/42
f 61/124/61 44/152/44 52/153/52
f 78/126/78 61/124/61 69/154/69
f 95/128/95 78/126/78 86/155/86
f 112/130/112 95/128/95 103/156/103
f 129/132/129 112/130/112 120/157/120
f 146/134/146 129/132/129 137/158/137
f 163/136/163 146/134/146 154/159/154
f 180/138/180 163/136/163 171/160/171
f 197/140/197 180/138/180 188/161/188
f 214/142/214 197/140/197 205/162/205
f 231/144/231 214/142/214 222/163/222
f 248/146/248 231/144/231 239/164/239
f 265/1/265 248/146/248 256/165/256
f 256/165/256 1/119/1 265/1/265
f 272/99/272 9/166/9 264/118/264
f 26/167/26 25/121/25 34/151/34
f 43/105/43 26/167/26 34/151/34
f 60/106/60 43/105/43 51/86/51
f 77/107/77 60/106/60 68/87/68
f 94/108/94 77/107/77 85/88/85
f 111/109/111 94/108/94 102/89/102
f 128/110/128 111/109/111 119/90/119
f 145/111/145 128/110/128 136/91/136
f 162/112/162 145/111/145 153/92/153
f 179/113/179 162/112/162 170/93/170
f 196/114/196 179/113/179 187/94/187
f 213/115/213 196/114/196 204/95/204
f 230/116/230 213/115/213 221/96/221
f 247/117/247 230/116/230 238/97/238
f 264/118/264 247/117/247 255/98/255
f 269/168/269 14/50/14 6/169/6
f 53/123/53 36/170/36 44/152/44
f 18/120/18 35/171/35 27/172/27
f 35/171/35 52/153/52 44/152/44
f 52/153/52 69/154/69 61/124/61
f 69/154/69 86/155/86 78/126/78
f 86/155/86 103/156/103 95/128/95
f 103/156/103 120/157/120 112/130/112
f 120/157/120 137/158/137 129/132/129
f 137/158/137 154/159/154 146/134/146
f 154/159/154 171/160/171 163/136/163
f 171/160/171 188/161/188 180/138/180
f 188/161/188 205/162/205 197/140/197
f 205/162/205 222/163/222 214/142/214
f 222/163/222 239/164/239 231/144/231
f 239/164/239 256/165/256 248/146/248
f 2/3/2 19/173/19 11/67/11
f 26/167/26 9/166/9 17/174/17
f 63/175/63 46/176/46 54/177/54
f 80/178/80 63/175/63 71/179/71
f 97/180/97 80/178/80 88/181/88
f 114/182/114 97/180/97 105/183/105
f 131/184/131 114/182/114 122/185/122
f 148/186/148 131/184/131 139/187/139
f 165/188/165 148/186/148 156/189/156
f 182/190/182 165/188/165 173/191/173
f 199/192/199 182/190/182 190/193/190
f 216/194/216 199/192/199 207/195/207
f 233/196/233 216/194/216 224/197/224
f 250/198/250 233/196/233 241/199/241
f 267/101/267 250/198/250 258/200/258
f 37/201/37 20/202/20 28/203/28
f 7/204/7 6/205/6 15/206/15
f 44/152/44 27/172/27 35/171/35
f 54/177/54 37/201/37 45/207/45
f 71/179/71 54/177/54 62/208/62
f 88/181/88 71/179/71 79/209/79
f 105/183/105 88/181/88 96/210/96
f 122/185/122 105/183/105 113/211/113
f 139/187/139 122/185/122 130/212/130
f 156/189/156 139/187/139 147/213/147
f 173/191/173 156/189/156 164/214/164
f 190/193/190 173/191/173 181/215/181
f 207/195/207 190/193/190 198/216/198
f 224/197/224 207/195/207 215/217/215
f 241/199/241 224/197/224 232/218/232
f 258/200/258 241/199/241 249/219/249
f 3/220/3 258/200/258 266/66/266
f 46/176/46 29/221/29 37/201/37
f 8/222/8 7/65/7 16/223/16
f 55/224/55 38/225/38 46/176/46
f 62/208/62 45/207/45 53/123/53
f 72/226/72 55/224/55 63/175/63
f 79/209/79 62/208/62 70/122/70
f 89/227/89 72/226/72 80/178/80
f 96/210/96 79/209/79 87/125/87
f 106/228/106 89/227/89 97/180/97
f 113/211/113 96/210/96 104/127/104
f 123/229/123 106/228/106 114/182/114
f 130/212/130 113/211/113 121/129/121
f 140/230/140 123/229/123 131/184/131
f 147/213/147 130/212/130 138/131/138
f 157/231/157 140/230/140 148/186/148
f 164/214/164 147/213/147 155/133/155
f 174/232/174 157/231/157 165/188/165
f 181/215/181 164/214/164 172/135/172
f 191/233/191 174/232/174 182/190/182
f 198/216/198 181/215/181 189/137/189
f 208/234/208 191/233/191 199/192/199
f 215/217/215 198/216/198 206/139/206
f 225/235/225 208/234/208 216/194/216
f 232/218/232 215/217/215 223/141/223
f 242/236/242 225/235/225 233/196/233
f 249/219/249 232/218/232 240/143/240
f 259/237/259 242/236/242 250/198/250
f 266/66/266 249/219/249 257/145/257
f 4/238/4 259/237/259 267/101/267
f 45/207/45 28/203/28 36/170/36
f 64/239/64 47/240/47 55/224/55
f 81/241/81 64/239/64 72/226/72
f 98/242/98 81/241/81 89/227/89
f 115/243/115 98/242/98 106/228/106
f 132/244/132 115/243/115 123/229/123
f 149/245/149 132/244/132 140/230/140
f 166/246/166 149/245/149 157/231/157
f 183/247/183 166/246/166 174/232/174
f 200/248/200 183/247/183 191/233/191
f 217/249/217 200/248/200 208/234/208
f 234/250/234 217/249/217 225/235/225
f 251/251/251 234/250/234 242/236/242
f 268/148/268 251/251/251 259/237/259
f 56/252/56 39/4/39 47/240/47
f 73/253/73 56/252/56 64/239/64
f 90/254/90 73/253/73 81/241/81
f 107/255/107 90/254/90 98/242/98
f 124/256/124 107/255/107 115/243/115
f 141/257/141 124/256/124 132/244/132
f 158/258/158 141/257/141 149/245/149
f 175/259/175 158/258/158 166/246/166
f 192/260/192 175/259/175 183/247/183
f 209/261/209 192/260/192 200/248/200
f 226/262/226 209/261/209 217/249/217
f 243/263/243 226/262/226 234/250/234
f 260/264/260 243/263/243 251/251/251
f 5/265/5 260/264/260 268/148/268
f 9/166/9 8/100/8 17/174/17
f 38/225/38 21/266/21 29/221/29
f 28/203/28 11/67/11 19/173/19
f 49/9/49 48/267/48 57/11/57
f 66/12/66 65/268/65 74/14/74
f 83/15/83 82/269/82 91/17/91
f 100/18/100 99/270/99 108/20/108
f 117/21/117 116/271/116 125/23/125
f 134/24/134 133/272/133 142/26/142
f 151/27/151 150/273/150 159/29/159
f 168/30/168 167/274/167 176/32/176
f 185/33/185 184/275/184 193/35/193
f 202/36/202 201/276/201 210/38/210
f 219/39/219 218/277/218 227/41/227
f 236/42/236 235/278/235 244/44/244
f 253/45/253 252/279/252 261/47/261
f 270/48/270 269/168/269 6/205/6
f 4/103/4 21/266/21 13/149/13
f 48/267/48 31/49/31 39/4/39
f 65/268/65 48/267/48 56/252/56
f 82/269/82 65/268/65 73/253/73
f 99/270/99 82/269/82 90/254/90
f 116/271/116 99/270/99 107/255/107
f 133/272/133 116/271/116 124/256/124
f 150/273/150 133/272/133 141/257/141
f 167/274/167 150/273/150 158/258/158
f 184/275/184 167/274/167 175/259/175
f 201/276/201 184/275/184 192/260/192
f 218/277/218 201/276/201 209/261/209
f 235/278/235 218/277/218 226/262/226
f 252/279/252 235/278/235 243/263/243
f 269/168/269 252/279/252 260/264/260
f 30/6/30 13/149/13 21/266/21
f 5/150/5 22/5/22 14/50/14
f 15/206/15 14/50/14 23/85/23
f 16/223/16 15/206/15 24/84/24
f 17/174/17 16/223/16 25/121/25
f 36/170/36 19/173/19 27/172/27
f 27/172/27 10/2/10 18/120/18
f 29/221/29 12/102/12 20/202/20
f 47/240/47 30/6/30 38/225/38
f 3/68/3 20/202/20 12/102/12
f 265/1/265 1/119/1 10/2/10
f 39/4/39 31/49/31 22/5/22
f 41/7/41 32/69/32 40/8/40
f 58/10/58 49/9/49 57/11/57
f 75/13/75 66/12/66 74/14/74
f 92/16/92 83/15/83 91/17/91
f 109/19/109 100/18/100 108/20/108
f 126/22/126 117/21/117 125/23/125
f 143/25/143 134/24/134 142/26/142
f 160/28/160 151/27/151 159/29/159
f 177/31/177 168/30/168 176/32/176
f 194/34/194 185/33/185 193/35/193
f 211/37/211 202/36/202 210/38/210
f 228/40/228 219/39/219 227/41/227
f 245/43/245 236/42/236 244/44/244
f 262/46/262 253/45/253 261/47/261
f 31/49/31 23/85/23 14/50/14
f 50/51/50 41/7/41 49/9/49
f 67/52/67 58/10/58 66/12/66
f 84/53/84 75/13/75 83/15/83
f 101/54/101 92/16/92 100/18/100
f 118/55/118 109/19/109 117/21/117
f 135/56/135 126/22/126 134/24/134
f 152/57/152 143/25/143 151/27/151
f 169/58/169 160/28/160 168/30/168
f 186/59/186 177/31/177 185/33/185
f 203/60/203 194/34/194 202/36/202
f 220/61/220 211/37/211 219/39/219
f 237/62/237 228/40/228 236/42/236
f 254/63/254 245/43/245 253/45/253
f 271/64/271 262/46/262 270/48/270
f 266/66/266 2/147/2 11/67/11
f 32/69/32 23/85/23 31/49/31
f 42/70/42 33/104/33 41/7/41
f 59/71/59 50/51/50 58/10/58
f 76/72/76 67/52/67 75/13/75
f 93/73/93 84/53/84 92/16/92
f 110/74/110 101/54/101 109/19/109
f 127/75/127 118/55/118 126/22/126
f 144/76/144 135/56/135 143/25/143
f 161/77/161 152/57/152 160/28/160
f 178/78/178 169/58/169 177/31/177
f 195/79/195 186/59/186 194/34/194
f 212/80/212 203/60/203 211/37/211
f 229/81/229 220/61/220 228/40/228
f 246/82/246 237/62/237 245/43/245
f 263/83/263 254/63/254 262/46/262
f 24/84/24 15/206/15 23/85/23
f 51/86/51 42/70/42 50/51/50
f 68/87/68 59/71/59 67/52/67
f 85/88/85 76/72/76 84/53/84
f 102/89/102 93/73/93 101/54/101
f 119/90/119 110/74/110 118/55/118
f 136/91/136 127/75/127 135/56/135
f 153/92/153 144/76/144 152/57/152
f 170/93/170 161/77/161 169/58/169
f 187/94/187 178/78/178 186/59/186
f 204/95/204 195/79/195 203/60/203
f 221/96/221 212/80/212 220/61/220
f 238/97/238 229/81/229 237/62/237
f 255/98/255 246/82/246 254/63/254
f 272/99/272 263/83/263 271/64/271
f 267/101/267 3/220/3 12/102/12
f 33/104/33 24/84/24 32/69/32
f 43/105/43 34/151/34 42/70/42
f 60/106/60 51/86/51 59/71/59
f 77/107/77 68/87/68 76/72/76
f 94/108/94 85/88/85 93/73/93
f 111/109/111 102/89/102 110/74/110
f 128/110/128 119/90/119 127/75/127
f 145/111/145 136/91/136 144/76/144
f 162/112/162 153/92/153 161/77/161
f 179/113/179 170/93/170 178/78/178
f 196/114/196 187/94/187 195/79/195
f 213/115/213 204/95/204 212/80/212
f 230/116/230 221/96/221 229/81/229
f 247/117/247 238/97/238 246/82/246
f 264/118/264 255/98/255 263/83/263
f 25/121/25 16/223/16 24/84/24
f 70/122/70 62/208/62 53/123/53
f 87/125/87 79/209/79 70/122/70
f 104/127/104 96/210/96 87/125/87
f 121/129/121 113/211/113 104/127/104
f 138/131/138 130/212/130 121/129/121
f 155/133/155 147/213/147 138/131/138
f 172/135/172 164/214/164 155/133/155
f 189/137/189 181/215/181 172/135/172
f 206/139/206 198/216/198 189/137/189
f 223/141/223 215/217/215 206/139/206
f 240/143/240 232/218/232 223/141/223
f 257/145/257 249/219/249 240/143/240
f 2/147/2 266/66/266 257/145/257
f 268/148/268 4/238/4 13/149/13
f 34/151/34 25/121/25 33/104/33
f 61/124/61 53/123/53 44/152/44
f 78/126/78 70/122/70 61/124/61
f 95/128/95 87/125/87 78/126/78
f 112/130/112 104/127/104 95/128/95
f 129/132/129 121/129/121 112/130/112
f 146/134/146 138/131/138 129/132/129
f 163/136/163 155/133/155 146/134/146
f 180/138/180 172/135/172 163/136/163
f 197/140/197 189/137/189 180/138/180
f 214/142/214 206/139/206 197/140/197
f 231/144/231 223/141/223 214/142/214
f 248/146/248 240/143/240 231/144/231
f 265/1/265 257/145/257 248/146/248
f 26/167/26 17/174/17 25/121/25
f 269/168/269 5/265/5 14/50/14
f 53/123/53 45/207/45 36/170/36
f 2/3/2 10/2/10 19/173/19
f 63/175/63 55/224/55 46/176/46
f 80/178/80 72/226/72 63/175/63
f 97/180/97 89/227/89 80/178/80
f 114/182/114 106/228/106 97/180/97
f 131/184/131 123/229/123 114/182/114
f 148/186/148 140/230/140 131/184/131
f 165/188/165 157/231/157 148/186/148
f 182/190/182 174/232/174 165/188/165
f 199/192/199 191/233/191 182/190/182
f 216/194/216 208/234/208 199/192/199
f 233/196/233 225/235/225 216/194/216
f 250/198/250 242/236/242 233/196/233
f 267/101/267 259/237/259 250/198/250
f 37/201/37 29/221/29 20/202/20
f 7/204/7 270/48/270 6/205/6
f 44/152/44 36/170/36 27/172/27
f 54/177/54 46/176/46 37/201/37
f 71/179/71 63/175/63 54/177/54
f 88/181/88 80/178/80 71/179/71
f 105/183/105 97/180/97 88/181/88
f 122/185/122 114/182/114 105/183/105
f 139/187/139 131/184/131 122/185/122
f 156/189/156 148/186/148 139/187/139
f 173/191/173 165/188/165 156/189/156
f 190/193/190 182/190/182 173/191/173
f 207/195/207 199/192/199 190/193/190
f 224/197/224 216/194/216 207/195/207
f 241/199/241 233/196/233 224/197/224
f 258/200/258 250/198/250 241/199/241
f 3/220/3 267/101/267 258/200/258
f 46/176/46 38/225/38 29/221/29
f 8/222/8 271/64/271 7/65/7
f 55/224/55 47/240/47 38/225/38
f 62/208/62 54/177/54 45/207/45
f 72/226/72 64/239/64 55/224/55
f 79/209/79 71/179/71 62/208/62
f 89/227/89 81/241/81 72/226/72
f 96/210/96 88/181/88 79/209/79
f 106/228/106 98/242/98 89/227/89
f 113/211/113 105/183/105 96/210/96
f 123/229/123 115/243/115 106/228/106
f 130/212/130 122/185/122 113/211/113
f 140/230/140 132/244/132 123/229/123
f 147/213/147 139/187/139 130/212/130
f 157/231/157 149/245/149 140/230/140
f 164/214/164 156/189/156 147/213/147
f 174/232/174 166/246/166 157/231/157
f 181/215/181 173/191/173 164/214/164
f 191/233/191 183/247/183 174/232/174
f 198/216/198 190/193/190 181/215/181
f 208/234/208 200/248/200 191/233/191
f 215/217/215 207/195/207 198/216/198
f 225/235/225 217/249/217 208/234/208
f 232/218/232 224/197/224 215/217/215
f 242/236/242 234/250/234 225/235/225
f 249/219/249 241/199/241 232/218/232
f 259/237/259 251/251/251 242/236/242
f 266/66/266 258/200/258 249/219/249
f 4/238/4 268/148/268 259/237/259
f 45/207/45 37/201/37 28/203/28
f 64/239/64 56/252/56 47/240/47
f 81/241/81 73/253/73 64/239/64
f 98/242/98 90/254/90 81/241/81
f 115/243/115 107/255/107 98/242/98
f 132/244/132 124/256/124 115/243/115
f 149/245/149 141/257/141 132/244/132
f 166/246/166 158/258/158 149/245/149
f 183/247/183 175/259/175 166/246/166
f 200/248/200 192/260/192 183/247/183
f 217/249/217 209/261/209 200/248/200
f 234/250/234 226/262/226 217/249/217
f 251/251/251 243/263/243 234/250/234
f 268/148/268 260/264/260 251/251/251
f 56/252/56 48/267/48 39/4/39
f 73/253/73 65/268/65 56/252/56
f 90/254/90 82/269/82 73/253/73
f 107/255/107 99/270/99 90/254/90
f 124/256/124 116/271/116 107/255/107
f 141/257/141 133/272/133 124/256/124
f 158/258/158 150/273/150 141/257/141
f 175/259/175 167/274/167 158/258/158
f 192/260/192 184/275/184 175/259/175
f 209/261/209 201/276/201 192/260/192
f 226/262/226 218/277/218 209/261/209
f 243/263/243 235/278/235 226/262/226
f 260/264/260 252/279/252 243/263/243
f 5/265/5 269/168/269 260/264/260
f 9/166/9 272/99/272 8/100/8
f 38/225/38 30/6/30 21/266/21
f 28/203/28 20/202/20 11/67/11
f 49/9/49 40/8/40 48/267/48
f 66/12/66 57/11/57 65/268/65
f 83/15/83 74/14/74 82/269/82
f 100/18/100 91/17/91 99/270/99
f 117/21/117 108/20/108 116/271/116
f 134/24/134 125/23/125 133/272/133
f 151/27/151 142/26/142 150/273/150
f 168/30/168 159/29/159 167/274/167
f 185/33/185 176/32/176 184/275/184
f 202/36/202 193/35/193 201/276/201
f 219/39/219 210/38/210 218/277/218
f 236/42/236 227/41/227 235/278/235
f 253/45/253 244/44/244 252/279/252
f 270/48/270 261/47/261 269/168/269
f 4/103/4 12/102/12 21/266/21
f 48/267/48 40/8/40 31/49/31
f 65/268/65 57/11/57 48/267/48
f 82/269/82 74/14/74 65/268/65
f 99/270/99 91/17/91 82/269/82
f 116/271/116 108/20/108 99/270/99
f 133/272/133 125/23/125 116/271/116
f 150/273/150 142/26/142 133/272/133
f 167/274/167 159/29/159 150/273/150
f 184/275/184 176/32/176 167/274/167
f 201/276/201 193/35/193 184/275/184
f 218/277/218 210/38/210 201/276/201
f 235/278/235 227/41/227 218/277/218
f 252/279/252 244/44/244 235/278/235
f 269/168/269 261/47/261 252/279/252
f 30/6/30 22/5/22 13/149/13
f 5/150/5 13/149/13 22/5/22
f 15/206/15 6/169/6 14/50/14
f 16/223/16 7/204/7 15/206/15
f 17/174/17 8/222/8 16/223/16
f 36/170/36 28/203/28 19/173/19
f 27/172/27 19/173/19 10/2/10
f 29/221/29 21/266/21 12/102/12
f 47/240/47 39/4/39 30/6/30
f 3/68/3 11/67/11 20/202/20
