# Blender 4.5.3 LTS
# www.blender.org
o bottom_reflector
v 0.285768 -3.304789 -0.542708
v 1.121187 -3.620348 -1.137008
v 1.528555 -3.808449 -1.196748
v 1.907757 -4.206227 -1.567729
v -0.648973 -3.596867 -1.409167
v -0.482035 -3.401087 -0.913693
v 1.713734 -4.487720 -2.147642
v 1.254267 -4.583049 -2.535046
v 1.259017 -4.749559 -2.676648
v 1.466555 -4.046625 -1.747134
v 1.157514 -4.235912 -2.215877
v 0.602603 -4.453522 -2.654701
v 1.117439 -3.862113 -1.690975
v 0.804424 -4.065045 -2.158026
v 0.463452 -3.757289 -1.808526
v 0.669311 -3.569926 -1.338780
v 0.220875 -4.248099 -2.506083
v 0.505559 -3.427091 -0.994812
v 0.080870 -3.848346 -2.007580
v -0.186097 -4.431065 -2.694001
v -0.045465 -3.580055 -1.516415
v -0.253145 -4.008401 -2.214590
v 0.050955 -3.425895 -1.124990
v -0.772028 -4.356577 -2.513295
v -0.092356 -3.293454 -0.539740
v -0.582367 -3.842042 -1.913581
v -1.308414 -4.749628 -2.652130
v -1.452506 -4.508461 -2.355275
v -1.147051 -4.129226 -2.087760
v -1.728033 -4.337392 -1.952705
v -2.159531 -4.747807 -2.024984
v -0.995474 -3.822621 -1.686777
v -1.541037 -4.045190 -1.680293
v -2.241300 -4.447322 -1.528996
v -1.077926 -3.608328 -1.153232
v -1.456620 -3.774586 -1.203039
v -1.925401 -4.101487 -1.333092
v -2.313474 -4.248981 -0.985495
v -2.757817 -4.745729 -1.079256
v -1.928318 -3.899993 -0.790192
v -0.889243 -3.420903 -0.650080
v -1.451079 -3.598116 -0.567691
v -2.571705 -4.349149 -0.480464
v -2.924511 -4.747588 -0.449606
v -0.539557 -3.306663 -0.329086
v -2.279243 -4.065164 -0.306195
v -1.910461 -3.787485 -0.064246
v -0.321794 -3.268048 -0.057828
v -1.191740 -3.451821 -0.111992
v -2.655720 -4.386078 0.082518
v -2.634714 -4.502748 0.834224
v -2.317235 -4.112429 0.455343
v -2.591680 -4.749558 1.421462
v -2.119291 -4.169880 1.191271
v -2.242844 -4.450400 1.527868
v -1.710085 -3.692892 0.335664
v -1.813479 -3.845425 0.844171
v -2.021870 -4.583056 1.974135
v -1.119917 -3.469325 0.558974
v -1.667815 -4.310436 1.961453
v -0.867360 -3.358274 0.124828
v -1.279236 -3.627430 0.972629
v -1.561431 -3.922133 1.431741
v -1.157590 -3.744107 1.420527
v -1.224910 -4.040228 1.909601
v -0.385886 -3.305936 0.515148
v -1.253045 -4.427632 2.377882
v -0.763931 -3.475014 1.003316
v -0.733810 -3.783983 1.751053
v -0.831884 -4.180336 2.288390
v 0.008357 -3.265037 0.299646
v -0.508818 -3.553828 1.360065
v -0.559822 -3.947915 2.068607
v -0.667166 -4.445874 2.622551
v 2.300013 -4.419068 -1.380777
v 2.608597 -4.459520 -0.776825
v 2.261178 -4.169493 -0.871706
v 1.904225 -3.940900 -0.968522
v 2.409687 -4.193916 -0.449685
v 2.709776 -4.447329 0.079696
v 1.957182 -3.828202 -0.278317
v 2.294053 -4.059987 0.052270
v 1.543434 -3.660011 -0.652662
v 1.063259 -3.481021 -0.703048
v 2.538000 -4.349904 0.668999
v 1.412457 -3.541097 -0.222077
v 2.403889 -4.299239 0.893331
v 1.947810 -3.853118 0.479041
v 1.606200 -3.629571 0.185156
v 0.741940 -3.358916 -0.468716
v 1.984897 -3.971750 0.909510
v 1.264955 -3.488766 0.252874
v 0.844841 -3.352007 0.045680
v 0.297891 -3.263731 -0.126274
v 2.341758 -4.466522 1.389140
v 1.432774 -3.623534 0.736969
v 2.530460 -4.750236 1.522087
v 0.893782 -3.397757 0.485117
v -0.478438 -4.747587 2.917136
v -0.217517 -4.186125 2.430622
v 0.068830 -4.459520 2.718868
v 0.552569 -4.749558 2.902158
v -0.159046 -3.843463 1.985740
v 0.348727 -4.154188 2.381607
v 0.721899 -4.462517 2.624196
v 0.305954 -3.881133 2.024967
v -0.087901 -3.642764 1.635614
v -0.225168 -3.459574 1.200014
v 0.404347 -3.622226 1.555880
v 0.908122 -4.084972 2.145485
v 1.453223 -4.379569 2.212350
v 0.849593 -3.699177 1.525533
v 0.192978 -3.363794 0.879113
v 1.233244 -3.933971 1.732052
v 1.622907 -4.156578 1.775081
v 1.974825 -4.468814 1.888009
v 0.808824 -3.488122 1.008366
v 1.390800 -3.785856 1.306728
v 0.520853 -3.331817 0.567033
v 1.981192 -4.153914 1.362217
v 2.232334 -4.745765 -1.945631
v 1.943779 -4.750520 -2.228028
v 1.607439 -4.750461 -2.479938
v 0.912302 -4.750363 -2.811508
v 0.552546 -4.749559 -2.906196
v 0.155048 -4.750461 -2.951855
v -0.166219 -4.750600 -2.950803
v -0.496592 -4.750201 -2.914593
v -0.739666 -4.748713 -2.863215
v -0.991999 -4.750417 -2.784778
v -1.599779 -4.750600 -2.485015
v -1.860313 -4.750461 -2.297029
v -2.390477 -4.750364 -1.738355
v -2.591689 -4.749558 -1.425478
v -2.856219 -4.750600 -0.755670
v -2.953496 -4.750417 -0.085008
v -2.944047 -4.750236 0.252647
v -2.881977 -4.750520 0.656030
v -2.757941 -4.750461 1.057518
v -2.390454 -4.750364 1.734352
v -2.155082 -4.749558 2.022391
v -1.860310 -4.750461 2.292998
v -1.620764 -4.745692 2.475203
v -1.311210 -4.750201 2.645877
v -1.084370 -4.748713 2.747181
v 2.852986 -4.750461 0.761543
v 2.718253 -4.749602 1.160230
v 2.437202 -4.750417 -1.670555
v 2.628057 -4.747587 -1.358550
v 2.752703 -4.750600 -1.070808
v 2.852986 -4.750461 -0.765578
v 2.935150 -4.747807 -0.369626
v 2.953514 -4.750364 -0.002028
v 2.932399 -4.749558 0.369372
v -0.834115 -4.750417 2.832043
v -0.166223 -4.750600 2.946768
v 0.155046 -4.750461 2.947820
v 0.912292 -4.750363 2.807478
v 1.256253 -4.747807 2.676408
v 1.607445 -4.750461 2.475900
v 1.866738 -4.750600 2.286207
v 2.115685 -4.749628 2.060767
v 2.339644 -4.750417 1.800798
vn 0.0825 0.9963 -0.0255
vn 0.0094 0.9964 0.0839
vn -0.0842 0.9964 -0.0098
vn 0.6214 0.6907 -0.3698
vn 0.5221 0.7396 -0.4247
vn 0.5657 0.6618 -0.4920
vn 0.4626 0.6746 -0.5752
vn 0.5116 0.6274 -0.5870
vn 0.4245 0.6297 -0.6506
vn 0.4042 0.7798 -0.4781
vn 0.3347 0.6531 -0.6793
vn 0.3285 0.6173 -0.7149
vn 0.4173 0.8474 -0.3283
vn 0.3187 0.7306 -0.6039
vn 0.2983 0.8371 -0.4586
vn 0.1652 0.6796 -0.7147
vn 0.2455 0.6351 -0.7324
vn 0.3037 0.9011 -0.3094
vn 0.2090 0.7798 -0.5901
vn 0.1314 0.8603 -0.4926
vn 0.2906 0.9371 -0.1934
vn 0.1838 0.9123 -0.3660
vn 0.0625 0.7330 -0.6774
vn 0.0460 0.6471 -0.7610
vn 0.1353 0.6281 -0.7663
vn 0.2083 0.9700 -0.1250
vn 0.1453 0.9530 -0.2659
vn 0.0228 0.8342 -0.5510
vn -0.0512 0.6838 -0.7279
vn -0.0415 0.6243 -0.7801
vn 0.0101 0.9517 -0.3069
vn -0.0176 0.9094 -0.4156
vn -0.0771 0.7873 -0.6118
vn 0.0809 0.9842 -0.1577
vn -0.2093 0.7057 -0.6769
vn -0.1847 0.6473 -0.7395
vn -0.1310 0.6468 -0.7513
vn -0.0292 0.9883 -0.1498
vn -0.1571 0.8369 -0.5243
vn -0.1303 0.9580 -0.2554
vn -0.1690 0.9086 -0.3821
vn -0.2674 0.6437 -0.7171
vn -0.3065 0.7619 -0.5706
vn -0.3277 0.6437 -0.6916
vn -0.3869 0.6667 -0.6371
vn -0.4867 0.6391 -0.5955
vn -0.4314 0.6157 -0.6594
vn -0.4762 0.7052 -0.5252
vn -0.5523 0.6507 -0.5210
vn -0.2802 0.8446 -0.4562
vn -0.4205 0.7859 -0.4533
vn -0.6030 0.6827 -0.4127
vn -0.6299 0.6269 -0.4586
vn -0.2914 0.9045 -0.3114
vn -0.4014 0.8556 -0.3268
vn -0.5226 0.7693 -0.3674
vn -0.6339 0.7267 -0.2647
vn -0.6999 0.6622 -0.2676
vn -0.6681 0.6514 -0.3596
vn -0.5250 0.8246 -0.2106
vn -0.2479 0.9525 -0.1770
vn -0.4004 0.9035 -0.1531
vn -0.7005 0.7002 -0.1381
vn -0.7505 0.6496 -0.1213
vn -0.2930 0.9532 -0.0748
vn -0.1550 0.9836 -0.0927
vn -0.6178 0.7823 -0.0801
vn -0.3349 0.9418 -0.0297
vn -0.5203 0.8538 -0.0203
vn -0.7182 0.6953 0.0268
vn -0.7684 0.6395 -0.0251
vn -0.2301 0.9725 0.0363
vn -0.6259 0.7699 0.1244
vn -0.4617 0.8819 0.0955
vn -0.7615 0.6432 0.0803
vn -0.7072 0.6703 0.2250
vn -0.7520 0.6416 0.1513
vn -0.7254 0.6235 0.2914
vn -0.6738 0.6467 0.3576
vn -0.5776 0.7497 0.3231
vn -0.6022 0.6832 0.4130
vn -0.4933 0.8402 0.2253
vn -0.5395 0.6527 0.5320
vn -0.6287 0.6257 0.4617
vn -0.3113 0.9384 0.1500
vn -0.4356 0.8102 0.3922
vn -0.4567 0.7154 0.5288
vn -0.3587 0.8960 0.2617
vn -0.4726 0.6588 0.5853
vn -0.5784 0.6173 0.5333
vn -0.4211 0.6553 0.6271
vn -0.3313 0.7848 0.5238
vn -0.3059 0.8694 0.3880
vn -0.1105 0.9829 0.1473
vn -0.2090 0.9395 0.2713
vn -0.3391 0.6870 0.6426
vn -0.3394 0.6366 0.6925
vn -0.2002 0.8560 0.4767
vn -0.2276 0.7497 0.6214
vn -0.2780 0.6484 0.7088
vn -0.1498 0.9110 0.3842
vn -0.0500 0.9460 0.3204
vn -0.1549 0.8089 0.5672
vn -0.1769 0.6808 0.7108
vn -0.2200 0.6318 0.7432
vn 0.6795 0.6485 -0.3432
vn 0.6332 0.6412 -0.4334
vn 0.7542 0.6259 -0.1986
vn 0.7086 0.6739 -0.2093
vn 0.7169 0.6382 -0.2805
vn 0.6088 0.7551 -0.2431
vn 0.7475 0.6573 -0.0956
vn 0.5244 0.8100 -0.2625
vn 0.6586 0.7436 -0.1153
vn 0.7791 0.6269 -0.0008
vn 0.7309 0.6823 0.0155
vn 0.5344 0.8417 -0.0773
vn 0.7633 0.6378 0.1032
vn 0.6232 0.7816 0.0279
vn 0.4249 0.8864 -0.1835
vn 0.6857 0.7074 0.1716
vn 0.3792 0.9232 -0.0633
vn 0.7468 0.6338 0.2015
vn 0.5489 0.8262 0.1272
vn 0.4516 0.8907 0.0529
vn 0.7041 0.6442 0.2986
vn 0.5410 0.8049 0.2439
vn 0.6441 0.7188 0.2617
vn 0.3411 0.9374 0.0706
vn 0.2296 0.9733 0.0062
vn 0.3898 0.8973 0.2071
vn 0.6344 0.6753 0.3761
vn 0.6651 0.6301 0.4006
vn 0.5352 0.7580 0.3728
vn 0.2528 0.9576 0.1385
vn 0.3829 0.8546 0.3509
vn 0.1379 0.9792 0.1489
vn 0.6151 0.6361 0.4659
vn 0.5349 0.6744 0.5091
vn 0.2231 0.9331 0.2822
vn -0.1139 0.6508 0.7507
vn 0.0166 0.6751 0.7375
vn -0.0453 0.6382 0.7685
vn 0.0478 0.6264 0.7780
vn -0.0603 0.7476 0.6614
vn 0.1355 0.6391 0.7571
vn -0.0391 0.8385 0.5435
vn 0.0925 0.7560 0.6480
vn 0.2038 0.6789 0.7054
vn 0.0887 0.8318 0.5479
vn -0.0222 0.8924 0.4507
vn 0.3168 0.6626 0.6786
vn 0.2433 0.6303 0.7372
vn 0.2469 0.7727 0.5848
vn 0.1117 0.8988 0.4240
vn 0.3848 0.6957 0.6065
vn 0.4215 0.6352 0.6472
vn 0.2299 0.8763 0.4233
vn 0.0505 0.9670 0.2496
vn 0.3325 0.8127 0.4784
vn 0.4835 0.6376 0.5997
vn 0.4420 0.7588 0.4785
vn 0.5603 0.6194 0.5499
vt 0.909091 0.000000
vt 0.913295 0.012463
vt 0.903528 0.014491
vt 0.481555 0.110680
vt 0.494266 0.103618
vt 0.482558 0.131559
vt 0.508576 0.125402
vt 0.499020 0.136531
vt 0.515601 0.140064
vt 0.512057 0.101272
vt 0.530126 0.132317
vt 0.531195 0.141965
vt 0.504354 0.080347
vt 0.528817 0.116955
vt 0.525857 0.092207
vt 0.553603 0.128376
vt 0.545550 0.142522
vt 0.517840 0.070052
vt 0.541699 0.107183
vt 0.550041 0.087574
vt 0.516747 0.053605
vt 0.536527 0.071848
vt 0.566027 0.115567
vt 0.575309 0.140064
vt 0.559715 0.141965
vt 0.528108 0.037217
vt 0.539202 0.054941
vt 0.566423 0.092340
vt 0.585994 0.122822
vt 0.587912 0.137578
vt 0.557734 0.052139
vt 0.565234 0.069049
vt 0.581711 0.097507
vt 0.541183 0.031338
vt 0.602642 0.109475
vt 0.611937 0.130033
vt 0.601300 0.133906
vt 0.539246 0.013370
vt 0.555709 0.025880
vt 0.589246 0.082768
vt 0.569686 0.041970
vt 0.580998 0.061563
vt 0.618900 0.127645
vt 0.681430 0.084479
vt 0.688682 0.104185
vt 0.668269 0.106361
vt 0.723187 0.007077
vt 0.732032 0.015877
vt 0.715200 0.024495
vt 0.671373 0.133851
vt 0.657198 0.128947
vt 0.685866 0.125480
vt 0.697419 0.140064
vt 0.684816 0.137578
vt 0.706038 0.120458
vt 0.713252 0.141994
vt 0.697517 0.086173
vt 0.711668 0.103352
vt 0.697486 0.066541
vt 0.730336 0.126835
vt 0.727369 0.142522
vt 0.715918 0.073895
vt 0.723159 0.089494
vt 0.729025 0.109112
vt 0.748493 0.115588
vt 0.757113 0.140015
vt 0.741533 0.141964
vt 0.708797 0.046939
vt 0.745544 0.095360
vt 0.727222 0.054294
vt 0.742225 0.072633
vt 0.771144 0.115580
vt 0.782729 0.133564
vt 0.769730 0.137577
vt 0.728939 0.034471
vt 0.769722 0.098461
vt 0.751328 0.052481
vt 0.767582 0.080366
vt 0.785080 0.102723
vt 0.797348 0.128946
vt 0.744375 0.029622
vt 0.867492 0.075175
vt 0.871734 0.103419
vt 0.855114 0.093492
vt 0.881890 0.048108
vt 0.880685 0.075571
vt 0.835647 0.127645
vt 0.853427 0.111986
vt 0.846199 0.131549
vt 0.875807 0.126610
vt 0.862656 0.136531
vt 0.879238 0.140063
vt 0.894831 0.141964
vt 0.898257 0.113352
vt 0.906503 0.127683
vt 0.895162 0.092233
vt 0.924419 0.132317
vt 0.909187 0.142522
vt 0.901589 0.061017
vt 0.916678 0.098435
vt 0.932419 0.118503
vt 0.893422 0.039955
vt 0.910486 0.076331
vt 0.938945 0.140064
vt 0.923350 0.141965
vt 0.951429 0.137399
vt 0.939561 0.100695
vt 0.927069 0.084164
vt 0.916015 0.032219
vt 0.923327 0.059255
vt 0.956742 0.119006
vt 0.964936 0.133906
vt 0.946375 0.079233
vt 0.961370 0.101252
vt 0.975572 0.130034
vt 0.939292 0.060055
vt 0.931857 0.044295
vt 0.955992 0.084566
vt 0.973020 0.115595
vt 0.982536 0.127645
vt 0.419093 0.133564
vt 0.418884 0.115582
vt 0.433694 0.128954
vt 0.431819 0.118096
vt 0.393491 0.140064
vt 0.393345 0.125434
vt 0.406095 0.137578
vt 0.396349 0.108159
vt 0.377658 0.141994
vt 0.420632 0.100804
vt 0.401099 0.092119
vt 0.408119 0.080370
vt 0.379531 0.113037
vt 0.363733 0.142522
vt 0.360574 0.126835
vt 0.374316 0.091801
vt 0.349378 0.141965
vt 0.361672 0.106444
vt 0.388415 0.074964
vt 0.400569 0.063969
vt 0.389196 0.054124
vt 0.341964 0.122408
vt 0.372940 0.067441
vt 0.333783 0.140064
vt 0.346080 0.091760
vt 0.357424 0.078398
vt 0.381511 0.040663
vt 0.316762 0.136047
vt 0.328277 0.095621
vt 0.330324 0.115401
vt 0.353732 0.061687
vt 0.362360 0.043463
vt 0.336495 0.071088
vt 0.366032 0.017749
vt 0.377842 0.024603
vt 0.308261 0.117974
vt 0.300744 0.131549
vt 0.310582 0.100520
vt 0.344411 0.046141
vt 0.319681 0.079473
vt 0.346101 0.032542
vt 0.290192 0.127645
vt 0.295455 0.118096
vt 0.301137 0.108254
vt 0.332387 0.054127
vt 0.355114 0.014762
vt 0.123661 0.116780
vt 0.126361 0.133565
vt 0.111744 0.128947
vt 0.152111 0.125434
vt 0.139361 0.137578
vt 0.151965 0.140064
vt 0.126690 0.097717
vt 0.145044 0.108211
vt 0.136402 0.088676
vt 0.167559 0.141965
vt 0.152504 0.088165
vt 0.166604 0.110902
vt 0.177666 0.127778
vt 0.142050 0.073819
vt 0.169466 0.094050
vt 0.150795 0.058632
vt 0.159148 0.073859
vt 0.195840 0.141994
vt 0.181723 0.142522
vt 0.188056 0.107793
vt 0.161434 0.052817
vt 0.178740 0.075252
vt 0.207550 0.122269
vt 0.211673 0.140064
vt 0.194544 0.081267
vt 0.167735 0.029232
vt 0.177508 0.044936
vt 0.205871 0.095985
vt 0.224277 0.137578
vt 0.232446 0.119251
vt 0.199616 0.061143
vt 0.217285 0.081059
vt 0.220100 0.105842
vt 0.195230 0.035864
vt 0.179572 0.016528
vt 0.238250 0.101213
vt 0.208787 0.048363
vt 0.219505 0.067082
vt 0.251894 0.128947
vt 0.237718 0.133851
vt 0.232955 0.088572
s 1
f 94/1/1 48/3/3 71/2/2
f 75/4/4 121/6/6 4/5/5
f 121/6/6 122/8/8 7/7/7
f 4/5/5 121/6/6 7/7/7
f 7/7/7 122/8/8 123/9/9
f 4/5/5 7/7/7 10/10/10
f 7/7/7 123/9/9 8/11/11
f 8/11/11 123/9/9 9/12/12
f 3/13/13 4/5/5 10/10/10
f 10/10/10 7/7/7 11/14/14
f 7/7/7 8/11/11 11/14/14
f 13/15/15 10/10/10 11/14/14
f 11/14/14 8/11/11 12/16/16
f 12/16/16 8/11/11 124/17/17
f 2/18/18 3/13/13 13/15/15
f 3/13/13 10/10/10 13/15/15
f 13/15/15 11/14/14 14/19/19
f 14/19/19 11/14/14 12/16/16
f 15/20/20 13/15/15 14/19/19
f 84/21/21 2/18/18 16/22/22
f 2/18/18 13/15/15 16/22/22
f 16/22/22 13/15/15 15/20/20
f 14/19/19 12/16/16 17/23/23
f 12/16/16 125/25/25 126/24/24
f 90/26/26 84/21/21 18/27/27
f 84/21/21 16/22/22 18/27/27
f 15/20/20 14/19/19 19/28/28
f 14/19/19 17/23/23 19/28/28
f 17/23/23 12/16/16 20/29/29
f 12/16/16 126/24/24 20/29/29
f 20/29/29 126/24/24 127/30/30
f 18/27/27 16/22/22 23/31/31
f 23/31/31 16/22/22 21/32/32
f 16/22/22 15/20/20 21/32/32
f 19/28/28 17/23/23 22/33/33
f 90/26/26 18/27/27 1/34/34
f 22/33/33 17/23/23 20/29/29
f 1/34/34 18/27/27 23/31/31
f 21/32/32 15/20/20 19/28/28
f 22/33/33 20/29/29 24/35/35
f 20/29/29 128/37/37 129/36/36
f 94/38/1 1/34/34 25/39/38
f 1/34/34 23/31/31 25/39/38
f 21/32/32 19/28/28 26/40/39
f 19/28/28 22/33/33 26/40/39
f 24/35/35 20/29/29 129/36/36
f 26/40/39 22/33/33 24/35/35
f 25/39/38 23/31/31 6/41/40
f 6/41/40 23/31/31 5/42/41
f 23/31/31 21/32/32 5/42/41
f 21/32/32 26/40/39 5/42/41
f 24/35/35 129/36/36 130/43/42
f 26/44/39 24/46/35 29/45/43
f 94/47/1 25/49/38 48/48/3
f 24/46/35 130/51/42 27/50/44
f 24/46/35 27/50/44 28/52/45
f 24/46/35 28/52/45 29/45/43
f 28/52/45 131/54/47 132/53/46
f 28/52/45 132/53/46 30/55/48
f 30/55/48 132/53/46 31/56/49
f 29/45/43 28/52/45 30/55/48
f 26/44/39 29/45/43 32/57/50
f 33/58/51 29/45/43 30/55/48
f 5/59/41 26/44/39 32/57/50
f 29/45/43 33/58/51 32/57/50
f 30/55/48 31/56/49 34/60/52
f 34/60/52 31/56/49 133/61/53
f 33/58/51 30/55/48 34/60/52
f 5/59/41 32/57/50 35/62/54
f 35/62/54 32/57/50 36/63/55
f 32/57/50 33/58/51 36/63/55
f 33/58/51 34/60/52 37/64/56
f 36/63/55 33/58/51 37/64/56
f 37/64/56 34/60/52 38/65/57
f 38/65/57 34/60/52 39/66/58
f 34/60/52 134/67/59 39/66/58
f 6/68/40 5/59/41 35/62/54
f 36/63/55 37/64/56 40/69/60
f 40/69/60 37/64/56 38/65/57
f 6/68/40 35/62/54 41/70/61
f 35/62/54 36/63/55 42/71/62
f 41/70/61 35/62/54 42/71/62
f 36/63/55 40/69/60 42/71/62
f 38/65/57 39/66/58 43/72/63
f 43/72/63 39/66/58 44/73/64
f 39/66/65 135/74/65 44/73/65
f 25/49/38 6/68/40 45/75/66
f 45/75/66 6/68/40 41/70/61
f 40/69/60 38/65/57 46/76/67
f 46/76/67 38/65/57 43/72/63
f 41/70/61 42/71/62 49/77/68
f 42/71/62 40/69/60 47/78/69
f 47/78/69 40/69/60 46/76/67
f 25/49/38 45/75/66 48/48/3
f 45/75/66 41/70/61 49/77/68
f 43/72/63 44/73/64 50/79/70
f 49/77/68 42/71/62 47/78/69
f 46/76/67 43/72/63 50/79/70
f 50/79/70 44/73/64 136/80/71
f 48/48/3 45/75/66 61/81/72
f 45/75/66 49/77/68 61/81/72
f 47/82/69 46/84/67 52/83/73
f 49/85/68 47/82/69 56/86/74
f 136/87/71 137/89/75 50/88/70
f 50/88/70 137/89/75 51/90/76
f 137/89/75 138/91/77 51/90/76
f 52/83/73 50/88/70 51/90/76
f 51/90/76 138/91/77 139/92/78
f 46/84/67 50/88/70 52/83/73
f 51/90/76 139/92/78 53/93/79
f 52/83/73 51/90/76 54/94/80
f 51/90/76 53/93/79 55/95/81
f 47/82/69 52/83/73 56/86/74
f 54/94/80 51/90/76 55/95/81
f 56/86/74 52/83/73 57/96/82
f 52/83/73 54/94/80 57/96/82
f 55/95/81 140/98/84 58/97/83
f 49/85/68 56/86/74 59/99/85
f 59/99/85 56/86/74 57/96/82
f 57/96/82 54/94/80 63/100/86
f 54/94/80 55/95/81 63/100/86
f 63/100/86 55/95/81 60/101/87
f 55/95/81 58/97/83 60/101/87
f 49/85/68 59/99/85 61/102/72
f 59/99/85 57/96/82 62/103/88
f 62/103/88 57/96/82 63/100/86
f 58/97/83 141/105/90 142/104/89
f 60/101/87 58/97/83 143/106/91
f 58/97/83 142/104/89 143/106/91
f 63/100/86 60/101/87 65/107/92
f 62/103/88 63/100/86 64/108/93
f 64/108/93 63/100/86 65/107/92
f 66/109/94 61/102/72 59/99/85
f 59/99/85 62/103/88 68/110/95
f 68/110/95 62/103/88 64/108/93
f 65/107/92 60/101/87 67/111/96
f 60/101/87 143/106/91 67/111/96
f 67/111/96 143/106/91 144/112/97
f 48/3/3 61/102/72 66/109/94
f 66/109/94 59/99/85 68/110/95
f 64/108/93 65/107/92 69/113/98
f 65/107/92 67/111/96 70/114/99
f 67/111/96 144/112/97 145/115/100
f 48/3/3 66/109/94 71/2/2
f 68/110/95 64/108/93 72/116/101
f 72/116/101 64/108/93 69/113/98
f 66/109/94 68/110/95 108/117/102
f 108/117/102 68/110/95 72/116/101
f 69/113/98 65/107/92 73/118/103
f 73/118/103 65/107/92 70/114/99
f 70/114/99 67/111/96 74/119/104
f 67/111/96 145/115/100 74/119/104
f 74/119/104 145/115/100 155/120/105
f 149/121/106 148/123/107 75/122/4
f 75/122/4 148/123/107 121/124/6
f 151/125/108 150/127/110 76/126/109
f 150/127/110 149/121/106 76/126/109
f 149/121/106 75/122/4 76/126/109
f 76/126/109 75/122/4 77/128/111
f 152/129/112 151/125/108 76/126/109
f 75/122/4 4/130/5 77/128/111
f 77/128/111 4/130/5 78/131/113
f 78/131/113 4/130/5 3/132/13
f 152/129/112 76/126/109 79/133/114
f 76/126/109 77/128/111 79/133/114
f 153/134/115 152/129/112 80/135/116
f 152/129/112 79/133/114 80/135/116
f 79/133/114 77/128/111 81/136/117
f 77/128/111 78/131/113 81/136/117
f 154/137/118 153/134/115 80/135/116
f 80/135/116 79/133/114 82/138/119
f 81/136/117 78/131/113 83/139/120
f 78/131/113 3/132/13 83/139/120
f 83/139/120 3/132/13 2/140/18
f 82/138/119 79/133/114 81/136/117
f 83/139/120 2/140/18 84/141/21
f 154/137/118 80/135/116 85/142/121
f 85/142/121 80/135/116 82/138/119
f 81/136/117 83/139/120 86/143/122
f 86/143/122 83/139/120 84/141/21
f 146/144/123 154/137/118 85/142/121
f 82/138/119 81/136/117 88/145/124
f 81/136/117 86/143/122 89/146/125
f 86/143/122 84/141/21 90/147/26
f 147/148/126 146/144/123 85/142/121
f 85/142/121 82/138/119 91/149/127
f 91/149/127 82/138/119 88/145/124
f 88/145/124 81/136/117 89/146/125
f 147/148/126 85/142/121 87/150/128
f 87/150/128 85/142/121 91/149/127
f 89/146/125 86/143/122 92/151/129
f 86/143/122 90/147/26 93/152/130
f 89/146/125 92/151/129 96/153/131
f 92/151/129 86/143/122 93/152/130
f 93/152/130 90/147/26 94/154/1
f 94/154/1 90/147/26 1/155/34
f 147/148/126 87/150/128 95/156/132
f 88/145/124 89/146/125 96/153/131
f 97/157/133 147/148/126 95/156/132
f 87/150/128 91/149/127 120/158/134
f 91/149/127 88/145/124 96/153/131
f 92/151/129 93/152/130 98/159/135
f 95/156/132 87/150/128 120/158/134
f 96/153/131 92/151/129 98/159/135
f 91/149/127 96/153/131 118/160/136
f 98/159/135 93/152/130 119/161/137
f 93/152/130 94/154/1 119/161/137
f 97/157/133 95/156/132 163/162/138
f 163/162/138 95/156/132 116/163/139
f 95/156/132 120/158/134 116/164/139
f 96/153/131 98/159/135 117/165/140
f 119/161/137 94/154/1 71/166/2
f 74/167/104 155/169/105 99/168/141
f 74/167/104 99/168/141 101/170/142
f 99/168/141 156/171/143 101/170/142
f 101/170/142 156/171/143 157/172/144
f 70/173/99 74/167/104 100/174/145
f 100/174/145 74/167/104 101/170/142
f 73/175/103 70/173/99 100/174/145
f 101/170/142 157/172/144 102/176/146
f 73/175/103 100/174/145 103/177/147
f 100/174/145 101/170/142 104/178/148
f 101/170/142 102/176/146 105/179/149
f 69/180/98 73/175/103 103/177/147
f 104/178/148 101/170/142 105/179/149
f 103/177/147 100/174/145 106/181/150
f 106/181/150 100/174/145 104/178/148
f 72/182/101 69/180/98 107/183/151
f 69/180/98 103/177/147 107/183/151
f 105/179/149 158/185/153 159/184/152
f 104/178/148 105/179/149 110/186/154
f 72/182/101 107/183/151 108/187/102
f 107/183/151 103/177/147 109/188/155
f 103/177/147 106/181/150 109/188/155
f 106/181/150 104/178/148 110/186/154
f 110/186/154 105/179/149 159/184/152
f 110/186/154 159/184/152 111/189/156
f 108/187/102 107/183/151 109/188/155
f 109/188/155 106/181/150 110/186/154
f 111/189/156 159/184/152 160/190/157
f 109/188/155 110/186/154 112/191/158
f 66/192/94 108/187/102 113/193/159
f 108/187/102 109/188/155 113/193/159
f 112/191/158 110/186/154 114/194/160
f 114/194/160 110/186/154 111/189/156
f 111/189/156 160/190/157 161/195/161
f 111/189/156 161/195/161 116/196/139
f 113/193/159 109/188/155 117/197/140
f 117/197/140 109/188/155 112/191/158
f 112/191/158 114/194/160 118/198/136
f 114/194/160 111/189/156 115/199/162
f 115/199/162 111/189/156 116/196/139
f 119/200/137 113/193/159 117/197/140
f 66/192/94 113/193/159 71/201/2
f 117/197/140 112/191/158 118/198/136
f 118/198/136 114/194/160 115/199/162
f 71/201/2 113/193/159 119/200/137
f 115/199/162 116/196/139 120/202/134
f 119/200/137 117/197/140 98/203/135
f 117/197/140 118/198/136 96/204/131
f 118/198/136 115/199/162 120/202/134
f 116/196/139 162/206/163 163/205/138
f 118/198/136 120/202/134 91/207/127
f 105/179/149 102/176/146 158/185/153
f 58/97/83 140/98/84 141/105/90
f 55/95/81 53/93/79 140/98/84
f 34/60/52 133/61/53 134/67/59
f 28/52/45 27/50/44 131/54/47
f 12/16/16 124/17/17 125/25/25
f 8/11/11 9/12/12 124/17/17
f 116/196/139 161/195/161 162/206/163
f 20/29/29 127/30/30 128/37/37
