# Blender 4.5.3 LTS
# www.blender.org
o top_reflector
v 0.578341 3.915072 -1.091890
v 2.266057 4.548751 -2.292495
v 3.089021 4.926480 -2.413182
v 3.855086 5.725265 -3.162639
v -1.310024 4.501597 -2.842312
v -0.972777 4.108449 -1.841354
v 3.463121 6.290536 -4.334180
v 2.534904 6.481966 -5.116815
v 2.544499 6.816338 -5.402879
v 2.963770 5.404765 -3.525074
v 2.339445 5.784876 -4.472028
v 1.218412 6.221861 -5.358542
v 2.258485 5.034242 -3.411620
v 1.626131 5.441755 -4.355159
v 0.937299 4.823745 -3.649098
v 1.353176 4.447498 -2.700114
v 0.447243 5.809348 -5.058304
v 1.022363 4.160668 -2.005231
v 0.164405 5.006598 -4.051227
v -0.374921 6.176764 -5.437936
v -0.090816 4.467839 -3.058974
v -0.510372 5.328008 -4.469429
v 0.103971 4.158267 -2.268217
v -1.558621 6.027185 -5.072873
v -0.185547 3.892310 -1.085893
v -1.175466 4.993938 -3.861330
v -2.642229 6.816477 -5.353347
v -2.933324 6.332186 -4.753640
v -2.316243 5.570637 -4.213206
v -3.489944 5.988659 -3.940369
v -4.361657 6.812819 -4.086386
v -2.010026 4.954939 -3.403139
v -3.112175 5.401884 -3.390041
v -4.526846 6.209412 -3.084389
v -2.176597 4.524613 -2.325272
v -2.941636 4.858480 -2.425890
v -3.888667 5.514934 -2.688624
v -4.672652 5.811119 -1.986408
v -5.570315 6.808648 -2.175825
v -3.894560 5.110310 -1.591858
v -1.795419 4.148242 -1.308803
v -2.930441 4.504107 -1.142360
v -5.194331 6.012268 -0.966144
v -5.907070 6.812380 -0.903803
v -1.088981 3.918835 -0.660329
v -4.603498 5.441993 -0.614084
v -3.858486 4.884381 -0.125299
v -0.649058 3.841291 -0.112334
v -2.406524 4.210330 -0.221756
v -5.364060 6.086427 0.171194
v -5.321622 6.320714 1.689791
v -4.680252 5.536907 0.924376
v -5.234685 6.816338 2.876132
v -4.280364 5.652277 2.411099
v -4.529967 6.215593 3.091093
v -3.453686 4.694428 0.682600
v -3.662562 5.000732 1.709887
v -4.083554 6.481981 3.992641
v -2.261427 4.245478 1.133731
v -3.368291 5.934529 3.967023
v -1.751211 4.022475 0.256669
v -2.583284 4.562973 1.969398
v -3.153373 5.154770 2.896896
v -2.337533 4.797275 2.874243
v -2.473533 5.391919 3.862270
v -0.778535 3.917376 1.045194
v -2.530372 6.169871 4.808291
v -1.542263 4.256903 2.031392
v -1.481413 4.877348 3.541972
v -1.679541 5.673272 4.627501
v 0.017915 3.835245 0.609836
v -1.026883 4.415170 2.752096
v -1.129922 5.206543 4.183495
v -1.346778 6.206503 5.302574
v 4.647523 6.152674 -2.784957
v 5.270926 6.233907 -1.564854
v 4.569068 5.651498 -1.756532
v 3.847950 5.192457 -1.952119
v 4.869086 5.700542 -0.903963
v 5.475326 6.209425 0.165492
v 3.954935 4.966146 -0.557766
v 4.635483 5.431596 0.110086
v 3.119080 4.628399 -1.314019
v 2.149029 4.268966 -1.415809
v 5.128305 6.013785 1.356004
v 2.854480 4.389606 -0.444150
v 4.857373 5.912043 1.809199
v 3.936001 5.016180 0.972250
v 3.245880 4.567272 0.378543
v 1.499900 4.023764 -0.942410
v 4.010925 5.254408 1.841885
v 2.556496 4.284518 0.515347
v 1.707782 4.009891 0.096773
v 0.602832 3.832623 -0.250609
v 4.731856 6.247968 2.810834
v 2.895524 4.555150 1.493316
v 5.113072 6.817697 3.079414
v 1.806653 4.101761 0.984526
v -0.965510 6.812379 5.897695
v -0.438396 5.684897 4.914837
v 0.140083 6.233906 5.497154
v 1.117333 6.816338 5.867436
v -0.320273 4.996792 4.016087
v 0.705530 5.620763 4.815817
v 1.459413 6.239925 5.305896
v 0.619120 5.072437 4.095332
v -0.176546 4.593765 3.308760
v -0.453854 4.225898 2.428761
v 0.817894 4.552522 3.147683
v 1.835621 5.481771 4.338803
v 2.936835 6.073356 4.473884
v 1.717381 4.707049 3.086376
v 0.390886 4.033561 1.780477
v 2.492434 5.178543 3.503586
v 3.279631 5.625564 3.590513
v 3.990578 6.252570 3.818651
v 1.635020 4.283226 2.041594
v 2.810729 4.881110 2.644345
v 1.053260 3.969348 1.150011
v 4.003441 5.620214 2.756444
v 4.510797 6.808719 -3.926077
v 3.927859 6.818268 -4.496575
v 3.248383 6.818149 -5.005486
v 1.844067 6.817954 -5.675324
v 1.117288 6.816338 -5.866613
v 0.314260 6.818149 -5.958853
v -0.334764 6.818429 -5.956727
v -1.002185 6.817627 -5.883576
v -1.493242 6.814641 -5.779783
v -2.003007 6.818061 -5.621324
v -3.230844 6.818429 -5.015742
v -3.757177 6.818149 -4.635972
v -4.828214 6.817955 -3.507337
v -5.234704 6.816338 -2.875262
v -5.769107 6.818429 -1.522116
v -5.965626 6.818062 -0.167243
v -5.946538 6.817698 0.514889
v -5.821144 6.818268 1.329803
v -5.570565 6.818149 2.140892
v -4.828167 6.817955 3.508232
v -4.352669 6.816338 4.090129
v -3.757170 6.818149 4.636809
v -3.273240 6.808574 5.004900
v -2.647876 6.817627 5.349697
v -2.189615 6.814641 5.554350
v 5.764640 6.818149 1.542960
v 5.492453 6.816426 2.348389
v 4.924673 6.818061 -3.370367
v 5.310239 6.812379 -2.740054
v 5.562047 6.818429 -2.158758
v 5.764639 6.818149 -1.542132
v 5.930629 6.812819 -0.742228
v 5.967727 6.817955 0.000394
v 5.925070 6.816338 0.750697
v -1.684049 6.818061 5.725789
v -0.334772 6.818429 5.957556
v 0.314257 6.818149 5.959683
v 1.844046 6.817954 5.676164
v 2.538916 6.812819 5.411375
v 3.248395 6.818149 5.006309
v 3.772220 6.818429 4.623090
v 4.275142 6.816477 4.167657
v 4.727586 6.818062 3.642467
vn 0.0821 -0.9963 -0.0253
vn 0.0093 -0.9965 0.0834
vn -0.0837 -0.9964 -0.0098
vn 0.6196 -0.6929 -0.3687
vn 0.5204 -0.7416 -0.4233
vn 0.5642 -0.6640 -0.4907
vn 0.4613 -0.6768 -0.5737
vn 0.5104 -0.6297 -0.5856
vn 0.4235 -0.6320 -0.6490
vn 0.4027 -0.7816 -0.4764
vn 0.3338 -0.6554 -0.6775
vn 0.3278 -0.6196 -0.7132
vn 0.4155 -0.8489 -0.3269
vn 0.3177 -0.7326 -0.6020
vn 0.2970 -0.8386 -0.4566
vn 0.1648 -0.6818 -0.7128
vn 0.2449 -0.6374 -0.7306
vn 0.3022 -0.9021 -0.3079
vn 0.2082 -0.7816 -0.5880
vn 0.1309 -0.8616 -0.4904
vn 0.2890 -0.9378 -0.1924
vn 0.1829 -0.9132 -0.3642
vn 0.0623 -0.7350 -0.6752
vn 0.0459 -0.6493 -0.7591
vn 0.1349 -0.6304 -0.7645
vn 0.2071 -0.9704 -0.1243
vn 0.1445 -0.9535 -0.2645
vn 0.0227 -0.8357 -0.5487
vn -0.0511 -0.6859 -0.7259
vn -0.0414 -0.6266 -0.7782
vn 0.0100 -0.9522 -0.3052
vn -0.0175 -0.9103 -0.4136
vn -0.0768 -0.7891 -0.6095
vn 0.0804 -0.9844 -0.1568
vn -0.2087 -0.7078 -0.6749
vn -0.1842 -0.6496 -0.7376
vn -0.1307 -0.6490 -0.7494
vn -0.0290 -0.9884 -0.1489
vn -0.1565 -0.8384 -0.5221
vn -0.1296 -0.9585 -0.2540
vn -0.1681 -0.9095 -0.3802
vn -0.2667 -0.6459 -0.7153
vn -0.3054 -0.7638 -0.5686
vn -0.3269 -0.6459 -0.6899
vn -0.3859 -0.6689 -0.6354
vn -0.4855 -0.6414 -0.5940
vn -0.4304 -0.6180 -0.6579
vn -0.4748 -0.7074 -0.5237
vn -0.5509 -0.6530 -0.5197
vn -0.2790 -0.8460 -0.4543
vn -0.4190 -0.7877 -0.4517
vn -0.6013 -0.6849 -0.4115
vn -0.6284 -0.6292 -0.4575
vn -0.2899 -0.9055 -0.3099
vn -0.3996 -0.8570 -0.3253
vn -0.5207 -0.7712 -0.3661
vn -0.6319 -0.7288 -0.2639
vn -0.6981 -0.6644 -0.2669
vn -0.6664 -0.6536 -0.3587
vn -0.5229 -0.8262 -0.2098
vn -0.2465 -0.9530 -0.1760
vn -0.3984 -0.9044 -0.1524
vn -0.6984 -0.7023 -0.1377
vn -0.7486 -0.6519 -0.1210
vn -0.2914 -0.9537 -0.0744
vn -0.1541 -0.9838 -0.0921
vn -0.6155 -0.7841 -0.0798
vn -0.3331 -0.9424 -0.0295
vn -0.5180 -0.8552 -0.0202
vn -0.7161 -0.6975 0.0267
vn -0.7665 -0.6418 -0.0251
vn -0.2288 -0.9728 0.0361
vn -0.6237 -0.7718 0.1239
vn -0.4595 -0.8831 0.0950
vn -0.7596 -0.6454 0.0801
vn -0.7053 -0.6725 0.2244
vn -0.7501 -0.6439 0.1509
vn -0.7238 -0.6258 0.2907
vn -0.6721 -0.6489 0.3567
vn -0.5756 -0.7517 0.3220
vn -0.6006 -0.6854 0.4118
vn -0.4912 -0.8416 0.2244
vn -0.5381 -0.6549 0.5306
vn -0.6272 -0.6280 0.4607
vn -0.3097 -0.9390 0.1493
vn -0.4339 -0.8119 0.3907
vn -0.4553 -0.7175 0.5272
vn -0.3570 -0.8971 0.2604
vn -0.4714 -0.6610 0.5838
vn -0.5770 -0.6196 0.5321
vn -0.4200 -0.6576 0.6255
vn -0.3300 -0.7866 0.5218
vn -0.3045 -0.8707 0.3862
vn -0.1098 -0.9831 0.1465
vn -0.2079 -0.9402 0.2699
vn -0.3382 -0.6892 0.6408
vn -0.3386 -0.6388 0.6908
vn -0.1993 -0.8574 0.4746
vn -0.2268 -0.7517 0.6193
vn -0.2773 -0.6506 0.7070
vn -0.1491 -0.9119 0.3823
vn -0.0497 -0.9466 0.3187
vn -0.1543 -0.8105 0.5650
vn -0.1764 -0.6830 0.7088
vn -0.2195 -0.6341 0.7414
vn 0.6778 -0.6507 -0.3423
vn 0.6316 -0.6435 -0.4324
vn 0.7525 -0.6282 -0.1981
vn 0.7067 -0.6761 -0.2087
vn 0.7151 -0.6405 -0.2798
vn 0.6067 -0.7571 -0.2423
vn 0.7456 -0.6596 -0.0953
vn 0.5223 -0.8117 -0.2615
vn 0.6564 -0.7456 -0.1150
vn 0.7773 -0.6292 -0.0008
vn 0.7288 -0.6845 0.0155
vn 0.5321 -0.8432 -0.0770
vn 0.7614 -0.6401 0.1029
vn 0.6209 -0.7834 0.0278
vn 0.4229 -0.8876 -0.1826
vn 0.6836 -0.7095 0.1711
vn 0.3772 -0.9240 -0.0630
vn 0.7450 -0.6361 0.2010
vn 0.5466 -0.8278 0.1266
vn 0.4494 -0.8918 0.0527
vn 0.7024 -0.6465 0.2979
vn 0.5389 -0.8066 0.2430
vn 0.6421 -0.7209 0.2609
vn 0.3393 -0.9380 0.0702
vn 0.2283 -0.9736 0.0062
vn 0.3879 -0.8984 0.2061
vn 0.6327 -0.6775 0.3751
vn 0.6636 -0.6324 0.3997
vn 0.5333 -0.7599 0.3716
vn 0.2514 -0.9580 0.1377
vn 0.3812 -0.8559 0.3493
vn 0.1371 -0.9794 0.1480
vn 0.6136 -0.6383 0.4647
vn 0.5334 -0.6766 0.5077
vn 0.2219 -0.9338 0.2808
vn -0.1137 -0.6530 0.7487
vn 0.0165 -0.6773 0.7355
vn -0.0452 -0.6405 0.7666
vn 0.0477 -0.6287 0.7762
vn -0.0601 -0.7496 0.6592
vn 0.1352 -0.6414 0.7552
vn -0.0389 -0.8400 0.5412
vn 0.0922 -0.7580 0.6458
vn 0.2032 -0.6811 0.7035
vn 0.0883 -0.8333 0.5457
vn -0.0221 -0.8935 0.4485
vn 0.3160 -0.6649 0.6768
vn 0.2427 -0.6326 0.7355
vn 0.2460 -0.7746 0.5827
vn 0.1112 -0.8998 0.4219
vn 0.3837 -0.6979 0.6048
vn 0.4204 -0.6374 0.6457
vn 0.2289 -0.8775 0.4213
vn 0.0503 -0.9674 0.2482
vn 0.3312 -0.8144 0.4765
vn 0.4823 -0.6399 0.5983
vn 0.4404 -0.7607 0.4768
vn 0.5590 -0.6217 0.5487
vt 0.909091 0.000000
vt 0.913295 0.012463
vt 0.903528 0.014491
vt 0.481555 0.110680
vt 0.494266 0.103618
vt 0.482558 0.131559
vt 0.508576 0.125402
vt 0.499020 0.136531
vt 0.515601 0.140064
vt 0.512057 0.101272
vt 0.530126 0.132317
vt 0.531195 0.141965
vt 0.504354 0.080347
vt 0.528817 0.116955
vt 0.525857 0.092207
vt 0.553603 0.128376
vt 0.545550 0.142522
vt 0.517840 0.070052
vt 0.541699 0.107183
vt 0.550041 0.087574
vt 0.516747 0.053605
vt 0.536527 0.071848
vt 0.566027 0.115567
vt 0.575309 0.140064
vt 0.559715 0.141965
vt 0.528108 0.037217
vt 0.539202 0.054941
vt 0.566423 0.092340
vt 0.585994 0.122822
vt 0.587912 0.137578
vt 0.557734 0.052139
vt 0.565234 0.069049
vt 0.581711 0.097507
vt 0.541183 0.031338
vt 0.602642 0.109475
vt 0.611937 0.130033
vt 0.601300 0.133906
vt 0.539246 0.013370
vt 0.555709 0.025880
vt 0.589246 0.082768
vt 0.569686 0.041970
vt 0.580998 0.061563
vt 0.618900 0.127645
vt 0.681430 0.084479
vt 0.688682 0.104185
vt 0.668269 0.106361
vt 0.723187 0.007077
vt 0.732032 0.015877
vt 0.715200 0.024495
vt 0.671373 0.133851
vt 0.657198 0.128947
vt 0.685866 0.125480
vt 0.697419 0.140064
vt 0.684816 0.137578
vt 0.706038 0.120458
vt 0.713252 0.141994
vt 0.697517 0.086173
vt 0.711668 0.103352
vt 0.697486 0.066541
vt 0.730336 0.126835
vt 0.727369 0.142522
vt 0.715918 0.073895
vt 0.723159 0.089494
vt 0.729025 0.109112
vt 0.748493 0.115588
vt 0.757113 0.140015
vt 0.741533 0.141964
vt 0.708797 0.046939
vt 0.745544 0.095360
vt 0.727222 0.054294
vt 0.742225 0.072633
vt 0.771144 0.115580
vt 0.782729 0.133564
vt 0.769730 0.137577
vt 0.728939 0.034471
vt 0.769722 0.098461
vt 0.751328 0.052481
vt 0.767582 0.080366
vt 0.785080 0.102723
vt 0.797348 0.128946
vt 0.744375 0.029622
vt 0.867492 0.075175
vt 0.871734 0.103419
vt 0.855114 0.093492
vt 0.881890 0.048108
vt 0.880685 0.075571
vt 0.835647 0.127645
vt 0.853427 0.111986
vt 0.846199 0.131549
vt 0.875807 0.126610
vt 0.862656 0.136531
vt 0.879238 0.140063
vt 0.894831 0.141964
vt 0.898257 0.113352
vt 0.906503 0.127683
vt 0.895162 0.092233
vt 0.924419 0.132317
vt 0.909187 0.142522
vt 0.901589 0.061017
vt 0.916678 0.098435
vt 0.932419 0.118503
vt 0.893422 0.039955
vt 0.910486 0.076331
vt 0.938945 0.140064
vt 0.923350 0.141965
vt 0.951429 0.137399
vt 0.939561 0.100695
vt 0.927069 0.084164
vt 0.916015 0.032219
vt 0.923327 0.059255
vt 0.956742 0.119006
vt 0.964936 0.133906
vt 0.946375 0.079233
vt 0.961370 0.101252
vt 0.975572 0.130034
vt 0.939292 0.060055
vt 0.931857 0.044295
vt 0.955992 0.084566
vt 0.973020 0.115595
vt 0.982536 0.127645
vt 0.419093 0.133564
vt 0.418884 0.115582
vt 0.433694 0.128954
vt 0.431819 0.118096
vt 0.393491 0.140064
vt 0.393345 0.125434
vt 0.406095 0.137578
vt 0.396349 0.108159
vt 0.377658 0.141994
vt 0.420632 0.100804
vt 0.401099 0.092119
vt 0.408119 0.080370
vt 0.379531 0.113037
vt 0.363733 0.142522
vt 0.360574 0.126835
vt 0.374316 0.091801
vt 0.349378 0.141965
vt 0.361672 0.106444
vt 0.388415 0.074964
vt 0.400569 0.063969
vt 0.389196 0.054124
vt 0.341964 0.122408
vt 0.372940 0.067441
vt 0.333783 0.140064
vt 0.346080 0.091760
vt 0.357424 0.078398
vt 0.381511 0.040663
vt 0.316762 0.136047
vt 0.328277 0.095621
vt 0.330324 0.115401
vt 0.353732 0.061687
vt 0.362360 0.043463
vt 0.336495 0.071088
vt 0.366032 0.017749
vt 0.377842 0.024603
vt 0.308261 0.117974
vt 0.300744 0.131549
vt 0.310582 0.100520
vt 0.344411 0.046141
vt 0.319681 0.079473
vt 0.346101 0.032542
vt 0.290192 0.127645
vt 0.295455 0.118096
vt 0.301137 0.108254
vt 0.332387 0.054127
vt 0.355114 0.014762
vt 0.123661 0.116780
vt 0.126361 0.133565
vt 0.111744 0.128947
vt 0.152111 0.125434
vt 0.139361 0.137578
vt 0.151965 0.140064
vt 0.126690 0.097717
vt 0.145044 0.108211
vt 0.136402 0.088676
vt 0.167559 0.141965
vt 0.152504 0.088165
vt 0.166604 0.110902
vt 0.177666 0.127778
vt 0.142050 0.073819
vt 0.169466 0.094050
vt 0.150795 0.058632
vt 0.159148 0.073859
vt 0.195840 0.141994
vt 0.181723 0.142522
vt 0.188056 0.107793
vt 0.161434 0.052817
vt 0.178740 0.075252
vt 0.207550 0.122269
vt 0.211673 0.140064
vt 0.194544 0.081267
vt 0.167735 0.029232
vt 0.177508 0.044936
vt 0.205871 0.095985
vt 0.224277 0.137578
vt 0.232446 0.119251
vt 0.199616 0.061143
vt 0.217285 0.081059
vt 0.220100 0.105842
vt 0.195230 0.035864
vt 0.179572 0.016528
vt 0.238250 0.101213
vt 0.208787 0.048363
vt 0.219505 0.067082
vt 0.251894 0.128947
vt 0.237718 0.133851
vt 0.232955 0.088572
s 1
f 94/1/1 71/2/2 48/3/3
f 75/4/4 4/5/5 121/6/6
f 121/6/6 7/7/7 122/8/8
f 4/5/5 7/7/7 121/6/6
f 7/7/7 123/9/9 122/8/8
f 4/5/5 10/10/10 7/7/7
f 7/7/7 8/11/11 123/9/9
f 8/11/11 9/12/12 123/9/9
f 3/13/13 10/10/10 4/5/5
f 10/10/10 11/14/14 7/7/7
f 7/7/7 11/14/14 8/11/11
f 13/15/15 11/14/14 10/10/10
f 11/14/14 12/16/16 8/11/11
f 12/16/16 124/17/17 8/11/11
f 2/18/18 13/15/15 3/13/13
f 3/13/13 13/15/15 10/10/10
f 13/15/15 14/19/19 11/14/14
f 14/19/19 12/16/16 11/14/14
f 15/20/20 14/19/19 13/15/15
f 84/21/21 16/22/22 2/18/18
f 2/18/18 16/22/22 13/15/15
f 16/22/22 15/20/20 13/15/15
f 14/19/19 17/23/23 12/16/16
f 12/16/16 126/24/24 125/25/25
f 90/26/26 18/27/27 84/21/21
f 84/21/21 18/27/27 16/22/22
f 15/20/20 19/28/28 14/19/19
f 14/19/19 19/28/28 17/23/23
f 17/23/23 20/29/29 12/16/16
f 12/16/16 20/29/29 126/24/24
f 20/29/29 127/30/30 126/24/24
f 18/27/27 23/31/31 16/22/22
f 23/31/31 21/32/32 16/22/22
f 16/22/22 21/32/32 15/20/20
f 19/28/28 22/33/33 17/23/23
f 90/26/26 1/34/34 18/27/27
f 22/33/33 20/29/29 17/23/23
f 1/34/34 23/31/31 18/27/27
f 21/32/32 19/28/28 15/20/20
f 22/33/33 24/35/35 20/29/29
f 20/29/29 129/36/36 128/37/37
f 94/38/1 25/39/38 1/34/34
f 1/34/34 25/39/38 23/31/31
f 21/32/32 26/40/39 19/28/28
f 19/28/28 26/40/39 22/33/33
f 24/35/35 129/36/36 20/29/29
f 26/40/39 24/35/35 22/33/33
f 25/39/38 6/41/40 23/31/31
f 6/41/40 5/42/41 23/31/31
f 23/31/31 5/42/41 21/32/32
f 21/32/32 5/42/41 26/40/39
f 24/35/35 130/43/42 129/36/36
f 26/44/39 29/45/43 24/46/35
f 94/47/1 48/48/3 25/49/38
f 24/46/35 27/50/44 130/51/42
f 24/46/35 28/52/45 27/50/44
f 24/46/35 29/45/43 28/52/45
f 28/52/45 132/53/46 131/54/47
f 28/52/45 30/55/48 132/53/46
f 30/55/48 31/56/49 132/53/46
f 29/45/43 30/55/48 28/52/45
f 26/44/39 32/57/50 29/45/43
f 33/58/51 30/55/48 29/45/43
f 5/59/41 32/57/50 26/44/39
f 29/45/43 32/57/50 33/58/51
f 30/55/48 34/60/52 31/56/49
f 34/60/52 133/61/53 31/56/49
f 33/58/51 34/60/52 30/55/48
f 5/59/41 35/62/54 32/57/50
f 35/62/54 36/63/55 32/57/50
f 32/57/50 36/63/55 33/58/51
f 33/58/51 37/64/56 34/60/52
f 36/63/55 37/64/56 33/58/51
f 37/64/56 38/65/57 34/60/52
f 38/65/57 39/66/58 34/60/52
f 34/60/52 39/66/58 134/67/59
f 6/68/40 35/62/54 5/59/41
f 36/63/55 40/69/60 37/64/56
f 40/69/60 38/65/57 37/64/56
f 6/68/40 41/70/61 35/62/54
f 35/62/54 42/71/62 36/63/55
f 41/70/61 42/71/62 35/62/54
f 36/63/55 42/71/62 40/69/60
f 38/65/57 43/72/63 39/66/58
f 43/72/63 44/73/64 39/66/58
f 39/66/65 44/73/65 135/74/65
f 25/49/38 45/75/66 6/68/40
f 45/75/66 41/70/61 6/68/40
f 40/69/60 46/76/67 38/65/57
f 46/76/67 43/72/63 38/65/57
f 41/70/61 49/77/68 42/71/62
f 42/71/62 47/78/69 40/69/60
f 47/78/69 46/76/67 40/69/60
f 25/49/38 48/48/3 45/75/66
f 45/75/66 49/77/68 41/70/61
f 43/72/63 50/79/70 44/73/64
f 49/77/68 47/78/69 42/71/62
f 46/76/67 50/79/70 43/72/63
f 50/79/70 136/80/71 44/73/64
f 48/48/3 61/81/72 45/75/66
f 45/75/66 61/81/72 49/77/68
f 47/82/69 52/83/73 46/84/67
f 49/85/68 56/86/74 47/82/69
f 136/87/71 50/88/70 137/89/75
f 50/88/70 51/90/76 137/89/75
f 137/89/75 51/90/76 138/91/77
f 52/83/73 51/90/76 50/88/70
f 51/90/76 139/92/78 138/91/77
f 46/84/67 52/83/73 50/88/70
f 51/90/76 53/93/79 139/92/78
f 52/83/73 54/94/80 51/90/76
f 51/90/76 55/95/81 53/93/79
f 47/82/69 56/86/74 52/83/73
f 54/94/80 55/95/81 51/90/76
f 56/86/74 57/96/82 52/83/73
f 52/83/73 57/96/82 54/94/80
f 55/95/81 58/97/83 140/98/84
f 49/85/68 59/99/85 56/86/74
f 59/99/85 57/96/82 56/86/74
f 57/96/82 63/100/86 54/94/80
f 54/94/80 63/100/86 55/95/81
f 63/100/86 60/101/87 55/95/81
f 55/95/81 60/101/87 58/97/83
f 49/85/68 61/102/72 59/99/85
f 59/99/85 62/103/88 57/96/82
f 62/103/88 63/100/86 57/96/82
f 58/97/83 142/104/89 141/105/90
f 60/101/87 143/106/91 58/97/83
f 58/97/83 143/106/91 142/104/89
f 63/100/86 65/107/92 60/101/87
f 62/103/88 64/108/93 63/100/86
f 64/108/93 65/107/92 63/100/86
f 66/109/94 59/99/85 61/102/72
f 59/99/85 68/110/95 62/103/88
f 68/110/95 64/108/93 62/103/88
f 65/107/92 67/111/96 60/101/87
f 60/101/87 67/111/96 143/106/91
f 67/111/96 144/112/97 143/106/91
f 48/3/3 66/109/94 61/102/72
f 66/109/94 68/110/95 59/99/85
f 64/108/93 69/113/98 65/107/92
f 65/107/92 70/114/99 67/111/96
f 67/111/96 145/115/100 144/112/97
f 48/3/3 71/2/2 66/109/94
f 68/110/95 72/116/101 64/108/93
f 72/116/101 69/113/98 64/108/93
f 66/109/94 108/117/102 68/110/95
f 108/117/102 72/116/101 68/110/95
f 69/113/98 73/118/103 65/107/92
f 73/118/103 70/114/99 65/107/92
f 70/114/99 74/119/104 67/111/96
f 67/111/96 74/119/104 145/115/100
f 74/119/104 155/120/105 145/115/100
f 149/121/106 75/122/4 148/123/107
f 75/122/4 121/124/6 148/123/107
f 151/125/108 76/126/109 150/127/110
f 150/127/110 76/126/109 149/121/106
f 149/121/106 76/126/109 75/122/4
f 76/126/109 77/128/111 75/122/4
f 152/129/112 76/126/109 151/125/108
f 75/122/4 77/128/111 4/130/5
f 77/128/111 78/131/113 4/130/5
f 78/131/113 3/132/13 4/130/5
f 152/129/112 79/133/114 76/126/109
f 76/126/109 79/133/114 77/128/111
f 153/134/115 80/135/116 152/129/112
f 152/129/112 80/135/116 79/133/114
f 79/133/114 81/136/117 77/128/111
f 77/128/111 81/136/117 78/131/113
f 154/137/118 80/135/116 153/134/115
f 80/135/116 82/138/119 79/133/114
f 81/136/117 83/139/120 78/131/113
f 78/131/113 83/139/120 3/132/13
f 83/139/120 2/140/18 3/132/13
f 82/138/119 81/136/117 79/133/114
f 83/139/120 84/141/21 2/140/18
f 154/137/118 85/142/121 80/135/116
f 85/142/121 82/138/119 80/135/116
f 81/136/117 86/143/122 83/139/120
f 86/143/122 84/141/21 83/139/120
f 146/144/123 85/142/121 154/137/118
f 82/138/119 88/145/124 81/136/117
f 81/136/117 89/146/125 86/143/122
f 86/143/122 90/147/26 84/141/21
f 147/148/126 85/142/121 146/144/123
f 85/142/121 91/149/127 82/138/119
f 91/149/127 88/145/124 82/138/119
f 88/145/124 89/146/125 81/136/117
f 147/148/126 87/150/128 85/142/121
f 87/150/128 91/149/127 85/142/121
f 89/146/125 92/151/129 86/143/122
f 86/143/122 93/152/130 90/147/26
f 89/146/125 96/153/131 92/151/129
f 92/151/129 93/152/130 86/143/122
f 93/152/130 94/154/1 90/147/26
f 94/154/1 1/155/34 90/147/26
f 147/148/126 95/156/132 87/150/128
f 88/145/124 96/153/131 89/146/125
f 97/157/133 95/156/132 147/148/126
f 87/150/128 120/158/134 91/149/127
f 91/149/127 96/153/131 88/145/124
f 92/151/129 98/159/135 93/152/130
f 95/156/132 120/158/134 87/150/128
f 96/153/131 98/159/135 92/151/129
f 91/149/127 118/160/136 96/153/131
f 98/159/135 119/161/137 93/152/130
f 93/152/130 119/161/137 94/154/1
f 97/157/133 163/162/138 95/156/132
f 163/162/138 116/163/139 95/156/132
f 95/156/132 116/164/139 120/158/134
f 96/153/131 117/165/140 98/159/135
f 119/161/137 71/166/2 94/154/1
f 74/167/104 99/168/141 155/169/105
f 74/167/104 101/170/142 99/168/141
f 99/168/141 101/170/142 156/171/143
f 101/170/142 157/172/144 156/171/143
f 70/173/99 100/174/145 74/167/104
f 100/174/145 101/170/142 74/167/104
f 73/175/103 100/174/145 70/173/99
f 101/170/142 102/176/146 157/172/144
f 73/175/103 103/177/147 100/174/145
f 100/174/145 104/178/148 101/170/142
f 101/170/142 105/179/149 102/176/146
f 69/180/98 103/177/147 73/175/103
f 104/178/148 105/179/149 101/170/142
f 103/177/147 106/181/150 100/174/145
f 106/181/150 104/178/148 100/174/145
f 72/182/101 107/183/151 69/180/98
f 69/180/98 107/183/151 103/177/147
f 105/179/149 159/184/152 158/185/153
f 104/178/148 110/186/154 105/179/149
f 72/182/101 108/187/102 107/183/151
f 107/183/151 109/188/155 103/177/147
f 103/177/147 109/188/155 106/181/150
f 106/181/150 110/186/154 104/178/148
f 110/186/154 159/184/152 105/179/149
f 110/186/154 111/189/156 159/184/152
f 108/187/102 109/188/155 107/183/151
f 109/188/155 110/186/154 106/181/150
f 111/189/156 160/190/157 159/184/152
f 109/188/155 112/191/158 110/186/154
f 66/192/94 113/193/159 108/187/102
f 108/187/102 113/193/159 109/188/155
f 112/191/158 114/194/160 110/186/154
f 114/194/160 111/189/156 110/186/154
f 111/189/156 161/195/161 160/190/157
f 111/189/156 116/196/139 161/195/161
f 113/193/159 117/197/140 109/188/155
f 117/197/140 112/191/158 109/188/155
f 112/191/158 118/198/136 114/194/160
f 114/194/160 115/199/162 111/189/156
f 115/199/162 116/196/139 111/189/156
f 119/200/137 117/197/140 113/193/159
f 66/192/94 71/201/2 113/193/159
f 117/197/140 118/198/136 112/191/158
f 118/198/136 115/199/162 114/194/160
f 71/201/2 119/200/137 113/193/159
f 115/199/162 120/202/134 116/196/139
f 119/200/137 98/203/135 117/197/140
f 117/197/140 96/204/131 118/198/136
f 118/198/136 120/202/134 115/199/162
f 116/196/139 163/205/138 162/206/163
f 118/198/136 91/207/127 120/202/134
f 105/179/149 158/185/153 102/176/146
f 58/97/83 141/105/90 140/98/84
f 55/95/81 140/98/84 53/93/79
f 34/60/52 134/67/59 133/61/53
f 28/52/45 131/54/47 27/50/44
f 12/16/16 125/25/25 124/17/17
f 8/11/11 124/17/17 9/12/12
f 116/196/139 162/206/163 161/195/161
f 20/29/29 128/37/37 127/30/30
