# Blender 4.5.3 LTS
# www.blender.org
o Gem
v 0.000000 -0.800000 0.000000
v 0.000000 0.350000 0.000000
v 0.000000 -0.400000 -0.541196
v 0.382683 0.000000 -0.923880
v 0.000000 0.175000 -0.865914
v 0.229610 0.350000 -0.554328
v 0.382683 -0.400000 -0.382683
v 0.923880 0.000000 -0.382683
v 0.612293 0.175000 -0.612293
v 0.554328 0.350000 -0.229610
v 0.541196 -0.400000 -0.000000
v 0.923880 0.000000 0.382683
v 0.865914 0.175000 -0.000000
v 0.554328 0.350000 0.229610
v 0.382683 -0.400000 0.382683
v 0.382683 0.000000 0.923880
v 0.612293 0.175000 0.612293
v 0.229610 0.350000 0.554328
v 0.000000 -0.400000 0.541196
v -0.382683 0.000000 0.923880
v 0.000000 0.175000 0.865914
v -0.229610 0.350000 0.554328
v -0.382683 -0.400000 0.382683
v -0.923880 0.000000 0.382683
v -0.612293 0.175000 0.612293
v -0.554328 0.350000 0.229610
v -0.541196 -0.400000 0.000000
v -0.923880 0.000000 -0.382683
v -0.865914 0.175000 0.000000
v -0.554328 0.350000 -0.229610
v -0.382683 -0.400000 -0.382683
v -0.382683 0.000000 -0.923880
v -0.612293 0.175000 -0.612293
v -0.229610 0.350000 -0.554328
vn 0.2391 -0.7809 -0.5771
vn 0.5109 -0.6913 -0.5109
vn 0.6712 0.3144 -0.6712
vn 0.2520 0.7526 -0.6084
vn 0.3463 0.8719 -0.3463
vn 0.5771 -0.7809 -0.2391
vn 0.7226 -0.6913 -0.0000
vn 0.9493 0.3144 -0.0000
vn 0.6084 0.7526 -0.2520
vn 0.4897 0.8719 -0.0000
vn 0.5771 -0.7809 0.2391
vn 0.5109 -0.6913 0.5109
vn 0.6712 0.3144 0.6712
vn 0.6084 0.7526 0.2520
vn 0.3463 0.8719 0.3463
vn 0.2391 -0.7809 0.5771
vn -0.0000 -0.6913 0.7226
vn -0.0000 0.3144 0.9493
vn 0.2520 0.7526 0.6084
vn -0.0000 0.8719 0.4897
vn -0.2391 -0.7809 0.5771
vn -0.5109 -0.6913 0.5109
vn -0.6712 0.3144 0.6712
vn -0.2520 0.7526 0.6084
vn -0.3463 0.8719 0.3463
vn -0.5771 -0.7809 0.2391
vn -0.7226 -0.6913 -0.0000
vn -0.9493 0.3144 -0.0000
vn -0.6084 0.7526 0.2520
vn -0.4897 0.8719 -0.0000
vn -0.5771 -0.7809 -0.2391
vn -0.5109 -0.6913 -0.5109
vn -0.6712 0.3144 -0.6712
vn -0.6084 0.7526 -0.2520
vn -0.3463 0.8719 -0.3463
vn -0.2391 -0.7809 -0.5771
vn -0.0000 -0.6913 -0.7226
vn -0.0000 0.3144 -0.9493
vn -0.2520 0.7526 -0.6084
vn -0.0000 0.8719 -0.4897
vn -0.0000 1.0000 -0.0000
vt 0.375000 0.276805
vt 0.500000 0.276805
vt 0.437500 0.481894
vt 0.312500 0.481894
vt 0.375000 0.543131
vt 0.437500 0.644623
vt 0.312500 0.644623
vt 0.250000 0.276805
vt 0.187500 0.481894
vt 0.250000 0.543131
vt 0.187500 0.644623
vt 0.125000 0.276805
vt 0.062500 0.481894
vt 0.125000 0.543131
vt 0.062500 0.644623
vt 0.000000 0.276805
vt 1.000000 0.276805
vt 1.062500 0.481894
vt 0.937500 0.481894
vt 1.000000 0.543131
vt 0.000000 0.543131
vt 1.062500 0.644623
vt 0.937500 0.644623
vt 0.875000 0.276805
vt 0.812500 0.481894
vt 0.875000 0.543131
vt 0.812500 0.644623
vt 0.750000 0.276805
vt 0.687500 0.481894
vt 0.750000 0.543131
vt 0.687500 0.644623
vt 0.625000 0.276805
vt 0.562500 0.481894
vt 0.625000 0.543131
vt 0.562500 0.644623
vt 0.500000 0.543131
vt 0.500000 1.000000
vt 0.375000 1.000000
vt 0.250000 1.000000
vt 0.125000 1.000000
vt 1.000000 1.000000
vt 0.875000 1.000000
vt 0.750000 1.000000
vt 0.625000 1.000000
vt 0.437500 0.000000
vt 0.312500 0.000000
vt 0.187500 0.000000
vt 0.062500 0.000000
vt 0.937500 0.000000
vt 0.812500 0.000000
vt 0.687500 0.000000
vt 0.562500 0.000000
s 0
f 7/1/1 3/2/1 4/3/1
f 7/1/2 4/3/2 8/4/2
f 8/4/3 4/3/3 9/5/3
f 4/3/4 6/6/4 9/5/4
f 9/5/5 6/6/5 10/7/5
f 11/8/6 7/1/6 8/4/6
f 11/8/7 8/4/7 12/9/7
f 12/9/8 8/4/8 13/10/8
f 8/4/9 10/7/9 13/10/9
f 13/10/10 10/7/10 14/11/10
f 15/12/11 11/8/11 12/9/11
f 15/12/12 12/9/12 16/13/12
f 16/13/13 12/9/13 17/14/13
f 12/9/14 14/11/14 17/14/14
f 17/14/15 14/11/15 18/15/15
f 19/16/16 15/12/16 16/13/16
f 19/17/17 16/18/17 20/19/17
f 20/19/18 16/18/18 21/20/18
f 16/13/19 18/15/19 21/21/19
f 21/20/20 18/22/20 22/23/20
f 23/24/21 19/17/21 20/19/21
f 23/24/22 20/19/22 24/25/22
f 24/25/23 20/19/23 25/26/23
f 20/19/24 22/23/24 25/26/24
f 25/26/25 22/23/25 26/27/25
f 27/28/26 23/24/26 24/25/26
f 27/28/27 24/25/27 28/29/27
f 28/29/28 24/25/28 29/30/28
f 24/25/29 26/27/29 29/30/29
f 29/30/30 26/27/30 30/31/30
f 31/32/31 27/28/31 28/29/31
f 31/32/32 28/29/32 32/33/32
f 32/33/33 28/29/33 33/34/33
f 28/29/34 30/31/34 33/34/34
f 33/34/35 30/31/35 34/35/35
f 3/2/36 31/32/36 32/33/36
f 3/2/37 32/33/37 4/3/37
f 4/3/38 32/33/38 5/36/38
f 32/33/39 34/35/39 5/36/39
f 5/36/40 34/35/40 6/6/40
f 2/37/41 6/6/41 34/35/41
f 6/6/41 2/38/41 10/7/41
f 10/7/41 2/39/41 14/11/41
f 14/11/41 2/40/41 18/15/41
f 18/22/41 2/41/41 22/23/41
f 22/23/41 2/42/41 26/27/41
f 26/27/41 2/43/41 30/31/41
f 30/31/41 2/44/41 34/35/41
f 7/1/1 1/45/1 3/2/1
f 4/3/4 5/36/4 6/6/4
f 11/8/6 1/46/6 7/1/6
f 8/4/9 9/5/9 10/7/9
f 15/12/11 1/47/11 11/8/11
f 12/9/14 13/10/14 14/11/14
f 19/16/16 1/48/16 15/12/16
f 16/13/19 17/14/19 18/15/19
f 23/24/21 1/49/21 19/17/21
f 20/19/24 21/20/24 22/23/24
f 27/28/26 1/50/26 23/24/26
f 24/25/29 25/26/29 26/27/29
f 31/32/31 1/51/31 27/28/31
f 28/29/34 29/30/34 30/31/34
f 3/2/36 1/52/36 31/32/36
f 32/33/39 33/34/39 34/35/39
