# Blender 4.5.3 LTS
# www.blender.org
o portal
v 0.000000 8.044903 -0.000001
v -3.356830 5.258817 -0.000001
v -1.960892 0.021851 0.000000
v 1.949544 -0.000845 0.000000
v 3.379526 5.224773 -0.000001
v -1.678415 6.651860 -0.000001
v -2.658861 2.640334 -0.000000
v -0.005674 0.010503 0.000000
v 2.664535 2.611964 -0.000000
v 1.689763 6.634838 -0.000001
v -0.980446 4.033377 -0.000000
v 0.974772 4.022029 -0.000000
v -0.839207 7.348382 -0.000001
v -3.007845 3.949576 -0.000000
v -0.983283 0.016177 0.000000
v 2.307039 1.305559 -0.000000
v 2.534644 5.929806 -0.000001
v -0.490223 6.039140 -0.000001
v 0.487386 6.033466 -0.000001
v -2.517622 5.955339 -0.000001
v -2.309876 1.331092 -0.000000
v 0.971935 0.004829 0.000000
v 3.022030 3.918369 -0.000000
v 0.844881 7.339870 -0.000001
v -1.470669 2.027614 -0.000000
v 1.462158 2.010592 -0.000000
v -0.002837 4.027703 -0.000000
v -0.493060 2.021940 -0.000000
v 0.484549 2.016266 -0.000000
v -1.819653 3.336855 -0.000000
v -1.329430 5.342618 -0.000001
v -2.168638 4.646097 -0.000000
v 1.332267 5.328434 -0.000001
v 1.819653 3.316997 -0.000000
v 2.177149 4.623401 -0.000000
vn -0.0000 -0.0000 1.0000
vt 0.894053 0.841347
vt 0.888047 0.863293
vt 0.902240 0.875136
vt 0.926802 0.976504
vt 0.940900 0.964804
vt 0.935037 0.942810
vt 0.959743 0.841728
vt 0.943320 0.841633
vt 0.951508 0.875422
vt 0.943272 0.909116
vt 0.926850 0.909021
vt 0.935085 0.875327
vt 0.926898 0.841538
vt 0.910475 0.841442
vt 0.918663 0.875232
vt 0.957370 0.897416
vt 0.949135 0.931110
vt 0.954997 0.953103
vt 0.969095 0.941403
vt 0.963232 0.919409
vt 0.910428 0.908926
vt 0.904422 0.930871
vt 0.918615 0.942715
vt 0.896235 0.897082
vt 0.882042 0.885239
vt 0.876037 0.907184
vt 0.890229 0.919028
vt 0.884224 0.940974
vt 0.898417 0.952817
vt 0.870031 0.929130
vt 0.912610 0.964661
vt 0.977330 0.907709
vt 0.971467 0.885715
vt 0.983192 0.929702
vt 0.965605 0.863722
s 0
f 4/1/1 16/2/1 26/3/1
f 1/4/1 13/5/1 18/6/1
f 3/7/1 15/8/1 25/9/1
f 11/10/1 27/11/1 18/6/1
f 11/10/1 28/12/1 27/11/1
f 8/13/1 22/14/1 29/15/1
f 11/10/1 30/16/1 25/9/1
f 11/10/1 31/17/1 30/16/1
f 6/18/1 20/19/1 32/20/1
f 12/21/1 33/22/1 19/23/1
f 12/21/1 34/24/1 33/22/1
f 9/25/1 23/26/1 35/27/1
f 35/27/1 17/28/1 10/29/1
f 35/27/1 23/26/1 17/28/1
f 23/26/1 5/30/1 17/28/1
f 33/22/1 35/27/1 10/29/1
f 33/22/1 34/24/1 35/27/1
f 34/24/1 9/25/1 35/27/1
f 19/23/1 24/31/1 1/4/1
f 19/23/1 33/22/1 24/31/1
f 33/22/1 10/29/1 24/31/1
f 32/20/1 14/32/1 7/33/1
f 32/20/1 20/19/1 14/32/1
f 20/19/1 2/34/1 14/32/1
f 30/16/1 32/20/1 7/33/1
f 30/16/1 31/17/1 32/20/1
f 31/17/1 6/18/1 32/20/1
f 25/9/1 21/35/1 3/7/1
f 25/9/1 30/16/1 21/35/1
f 30/16/1 7/33/1 21/35/1
f 29/15/1 26/3/1 12/21/1
f 29/15/1 22/14/1 26/3/1
f 22/14/1 4/1/1 26/3/1
f 27/11/1 29/15/1 12/21/1
f 27/11/1 28/12/1 29/15/1
f 28/12/1 8/13/1 29/15/1
f 18/6/1 19/23/1 1/4/1
f 18/6/1 27/11/1 19/23/1
f 27/11/1 12/21/1 19/23/1
f 25/9/1 28/12/1 11/10/1
f 25/9/1 15/8/1 28/12/1
f 15/8/1 8/13/1 28/12/1
f 18/6/1 31/17/1 11/10/1
f 18/6/1 13/5/1 31/17/1
f 13/5/1 6/18/1 31/17/1
f 26/3/1 34/24/1 12/21/1
f 26/3/1 16/2/1 34/24/1
f 16/2/1 9/25/1 34/24/1
